<svg
  width="150"
  height="48"
  viewBox="0 0 150 48"
  fill="none"
  xmlns="http://www.w3.org/2000/svg"
>
  <path
    fill-rule="evenodd"
    clip-rule="evenodd"
    d="M4.88964 5.83619C6.20012 3.23652 9.98445 2.57838 16.0936 2.56289C15.66 3.14555 15.0347 3.30427 14.9225 4.0263C14.8605 4.77929 15.4703 5.07546 15.7432 5.79167C6.37434 6.34722 6.87569 9.5702 11.9298 16.0161C11.4188 16.5078 11.0143 17.0847 10.7607 17.7544C17.0653 11.2001 24.2081 15.1044 30.505 18.0022C30.805 18.1474 31.107 18.2809 31.4303 18.4009C33.5383 19.2468 35.8786 19.7521 38.2111 19.4366C37.0768 19.2449 35.987 19.0204 34.9339 18.7436C35.8321 16.3955 37.0961 14.4714 39.2932 13.1106C37.402 13.1842 36.1921 13.2268 34.4906 14.1075C36.7574 10.4297 39.5719 9.86636 43.4762 9.60697C41.5618 8.96044 39.3648 8.64879 37.3303 8.82301C41.2676 6.15559 43.244 6.86793 47.5083 7.52414C45.923 6.31625 44.1054 5.54777 42.5606 4.94576C47.3883 4.35343 50.0945 5.029 52.2721 9.29919C51.7805 9.43276 51.4882 9.56439 50.8204 10.0135C54.3937 8.9527 55.2938 9.78119 56.4436 12.9713C57.0747 14.7269 58.0193 15.991 59.866 17.0363C58.6678 19.663 57.3031 19.2759 55.7216 17.9944C52.6438 15.4954 51.6217 19.5604 52.6845 20.4412C53.4568 21.08 54.7402 21.2774 55.6674 21.3548C53.6968 24.1036 51.3198 22.1136 50.1971 19.8489C50.6171 21.8155 51.5095 23.6177 51.8579 25.5708C50.6984 27.7582 49.6144 29.8797 48.5517 32.0981C48.0871 30.7915 47.5316 29.4771 46.8754 28.035C47.4367 30.4527 48.0794 32.8414 48.7588 35.2204V35.2262H48.7608C49.5544 38.1278 50.5765 41.5405 51.6159 44.266C54.0414 44.295 56.0584 44.7306 56.132 47.4503H49.7635L43.1685 34.2158L40.5572 38.5595V35.8166H39.026V41.1069L37.2703 44.024C40.1333 43.964 41.8348 44.8564 42.9613 47.4503H32.5375L32.7156 45.1506L18.3893 38.8034L18.039 43.0813C21.2561 43.9195 24.6069 43.7627 25.4276 47.4503H16.7382L14.1327 41.4476V35.8147H12.6015V37.9188L10.5865 33.275C8.87916 36.9625 7.17379 40.652 5.46649 44.3396C7.86871 44.3686 9.87218 44.7964 9.97864 47.4483L0.00195312 47.5141C4.09793 34.4597 4.49476 33.6138 8.47653 22.3246C9.03595 23.1647 9.53149 23.8577 10.178 24.634C8.13197 20.3657 2.97134 9.64182 4.88964 5.83619ZM41.2695 38.8363V41.3063H42.5684V38.8363H41.2695ZM44.2138 41.3198V47.4445H45.7449V41.3198H44.2138ZM8.50169 38.8363V41.3063H9.80056V38.8363H8.50169ZM26.6723 5.35033L24.4985 4.65347C24.2197 4.57023 23.9371 4.48893 23.6487 4.41344C23.9429 4.42699 24.152 4.44635 24.3494 4.49087C24.2855 3.49591 24.2662 3.08554 23.67 2.2164C23.488 2.51837 23.3409 2.77389 23.1957 2.99456L23.1764 3.0236L23.1706 3.03327L23.1512 3.06231L23.1454 3.07199L23.126 3.09909L23.1183 3.10877L23.1009 3.13393L23.0931 3.14555L23.0757 3.17071L23.068 3.18232L23.0505 3.20555L23.0409 3.2191C23.006 3.2675 22.9692 3.31202 22.9325 3.35654L22.9189 3.37203L22.9034 3.38945L22.8918 3.403C22.4447 3.91209 21.8814 4.20632 20.989 4.31085C21.171 4.22568 21.3394 4.15018 21.4942 4.07469C21.982 2.5416 22.0401 1.67634 21.049 0.354241C20.9774 0.880756 20.9155 1.32404 20.8245 1.71505C20.6173 2.93455 19.8218 3.56947 18.7823 4.08243C18.9759 3.90241 19.1501 3.74368 19.3088 3.59463C18.9333 1.55632 18.8346 1.35307 17.1292 0.00387573C17.6267 3.24814 15.8168 2.75453 15.6174 4.03598C15.509 5.32904 17.3847 5.27484 16.1381 8.31004C18.1145 7.40025 18.2577 7.22604 19.1017 5.33291C18.9817 5.14708 18.8539 4.95544 18.7184 4.75026C19.5121 5.40453 20.2341 6.19237 20.1295 7.63254C20.4557 7.09656 20.7234 6.6361 20.9315 6.22329C20.9489 6.19106 20.9662 6.15883 20.9826 6.12661C21.0837 5.93177 21.1629 5.74922 21.2212 5.58265C21.485 4.85644 21.2879 4.3066 20.9305 3.77463L20.9161 3.75279C20.4754 3.05959 19.6105 2.60469 18.4292 2.34542C17.5545 2.14169 16.9587 2.16177 16.4728 2.56289L16.4728 2.56289L16.0936 2.56289C16.0936 2.56289 6.20012 3.23652 4.88964 5.83619Z"
    fill="currentColor"
  ></path>
</svg>
