<?xml version="1.0" encoding="utf-8"?>
<!-- Generator: Adobe Illustrator 26.0.1, SVG Export Plug-In . SVG Version: 6.00 Build 0)  -->
<svg version="1.1" id="Layer_1" xmlns="http://www.w3.org/2000/svg" xmlns:xlink="http://www.w3.org/1999/xlink" x="0px" y="0px"
	 width="599.6px" height="191.9px" viewBox="0 0 599.6 191.9" enable-background="new 0 0 599.6 191.9" xml:space="preserve">
<g opacity="0.4">
	<path fill-rule="evenodd" clip-rule="evenodd" fill="#C8A93D" d="M46.6,30.3c4.7-9.4,18.4-11.8,40.5-11.8c-1.6,2.1-3.8,2.7-4.2,5.3
		c-0.2,2.7,2,3.8,3,6.4c-33.9,2-32.1,13.7-13.8,37c-1.8,1.8-3.3,3.9-4.2,6.3c22.8-23.7,48.6-9.6,71.4,0.9c1.1,0.5,2.2,1,3.3,1.4
		c7.6,3.1,16.1,4.9,24.5,3.7c-4.1-0.7-8-1.5-11.8-2.5c3.2-8.5,7.8-15.4,15.8-20.4c-6.8,0.3-11.2,0.4-17.4,3.6
		c8.2-13.3,18.4-15.3,32.5-16.3c-6.9-2.3-14.9-3.5-22.2-2.8c14.2-9.6,21.4-7.1,36.8-4.7c-5.7-4.4-12.3-7.1-17.9-9.3
		c17.5-2.1,27.2,0.3,35.1,15.7c-1.8,0.5-2.8,1-5.2,2.6c12.9-3.8,16.2-0.8,20.3,10.7c2.3,6.3,5.7,10.9,12.4,14.7
		c-4.3,9.5-9.3,8.1-15,3.5c-11.1-9-14.8,5.7-11,8.8c2.8,2.3,7.4,3,10.8,3.3c-7.1,9.9-15.7,2.7-19.8-5.4c1.5,7.1,4.7,13.6,6,20.7
		c-4.2,7.9-8.1,15.6-12,23.6c-1.7-4.7-3.7-9.5-6.1-14.7c2,8.7,4.4,17.4,6.8,26v0h0c2.9,10.5,6.6,22.8,10.3,32.7
		c8.8,0.1,16.1,1.7,16.3,11.5h-23L185,132.9l-9.4,15.7v-9.9H170v19.1l-6.3,10.5c10.4-0.2,16.5,3,20.6,12.4h-37.7l0.6-8.3l-51.8-22.9
		l-1.3,15.5c11.6,3,23.7,2.5,26.7,15.8H89.4L80,159v-20.4h-5.5v7.6l-7.3-16.8c-6.2,13.3-12.3,26.7-18.5,40
		c8.7,0.1,15.9,1.7,16.3,11.2l-36.1,0.2c14.8-47.2,16.2-50.3,30.6-91.1c2,3,3.8,5.5,6.2,8.3C58.3,82.8,39.6,44,46.6,30.3z
		 M178.1,149.6v8.9h4.7v-8.9H178.1z M188.7,158.5v22.1h5.5v-22.1H188.7z M59.6,149.6v8.9h4.7v-8.9H59.6z M125.3,28.5l-7.9-2.5
		c-1-0.3-2-0.6-3.1-0.9c1.1,0,1.8,0.1,2.5,0.3c-0.2-3.6-0.3-5.1-2.5-8.2c-0.7,1.1-1.2,2-1.7,2.8l-0.1,0.1l0,0l-0.1,0.1l0,0l-0.1,0.1
		l0,0l-0.1,0.1l0,0l-0.1,0.1l0,0l-0.1,0.1l0,0c-0.1,0.2-0.3,0.3-0.4,0.5l0,0.1l-0.1,0.1l0,0c-1.6,1.8-3.7,2.9-6.9,3.3
		c0.7-0.3,1.3-0.6,1.8-0.9c1.8-5.5,2-8.7-1.6-13.5c-0.3,1.9-0.5,3.5-0.8,4.9c-0.7,4.4-3.6,6.7-7.4,8.6c0.7-0.7,1.3-1.2,1.9-1.8
		c-1.4-7.4-1.7-8.1-7.9-13c1.8,11.7-4.7,9.9-5.5,14.6c-0.4,4.7,6.4,4.5,1.9,15.5c7.1-3.3,7.7-3.9,10.7-10.8
		c-0.4-0.7-0.9-1.4-1.4-2.1c2.9,2.4,5.5,5.2,5.1,10.4c0,1.3-0.2,2.8-0.4,4.6c4.6-3.8,5.1-6.9,4.7-12.7c-0.5-0.4-1-0.8-1.6-1.3
		c4.1,1.5,5.8,3.7,6.9,7.3c0.2,0.7,0.5,1.5,0.7,2.4c2.8-2.6,3.3-4,4.3-7.4c-0.7,0-1.5-0.1-2.5-0.3c2.4,0,4.6-0.2,7-0.4h0.1l0.1,0
		h0.1L125.3,28.5L125.3,28.5z M147.4,168.8l0.8-11L96.5,135l-0.9,10.9L147.4,168.8z M148.6,154.3l0.5-6.4l0.2-3.2l-51.6-22.9
		l-0.8,9.6L148.6,154.3z M149.5,141.1l0.8-12.1c-17.1-7.6-34.3-15.2-51.4-22.8l-1,12.1L149.5,141.1z M69.6,158.3v22.1h5.5v-22.1
		H69.6z M162.2,109.9c-4.3,0-7.8,3.5-7.8,7.8c0,4.3,3.5,7.8,7.8,7.8s7.8-3.5,7.8-7.8C170,113.4,166.5,109.9,162.2,109.9z"/>
	<path fill-rule="evenodd" clip-rule="evenodd" fill="#FEFEFE" d="M456.9,88.3V35.8h52.6v10.4l-42.3,0v31.8l42.3,0v10.4L456.9,88.3
		L456.9,88.3z M473.6,56.9v10.4H501V56.9H473.6z"/>
	<path fill-rule="evenodd" clip-rule="evenodd" fill="#FEFEFE" d="M405.9,46.2v42.1h-10.3V35.8h52.6v10.4L405.9,46.2L405.9,46.2z
		 M412.3,56.9v10.4h23.2V56.9H412.3z"/>
	<path fill-rule="evenodd" clip-rule="evenodd" fill="#FEFEFE" d="M376.5,88.3V46.2h-31.9v42.1l-10.3,0V45.2c0-6.2,3.1-9.4,9.4-9.4
		h33.8c6.2,0,9.4,3.1,9.4,9.4v43.2L376.5,88.3L376.5,88.3z"/>
	<path fill="#FEFEFE" d="M325.5,35.8H273v10.4h52.6V35.8z"/>
	<path fill-rule="evenodd" clip-rule="evenodd" fill="#FEFEFE" d="M316.2,88.3H273V77.9h38.9c2.2,0,3.3-1.1,3.3-3.3v-4.2
		c0-2.2-1.1-3.3-3.3-3.3h-29.6c-6.2,0-9.4-3.1-9.4-9.4v-1h43.2c6.2,0,9.4,3.1,9.4,9.4v12.7C325.5,85.2,322.4,88.3,316.2,88.3
		L316.2,88.3z"/>
	<path fill-rule="evenodd" clip-rule="evenodd" fill="#FEFEFE" d="M518.1,150.5V98h52.6v10.4h-42.2V119h33.8v10.4h-33.8v10.7h42.2
		v10.4H518.1z"/>
	<path fill-rule="evenodd" clip-rule="evenodd" fill="#FEFEFE" d="M438.7,150.5h-33.8c-6.2,0-9.4-3.1-9.4-9.4V98h10.3v38.9
		c0,2.2,1.1,3.3,3.3,3.3h25.3c2.2,0,3.3-1.1,3.3-3.3V98h10.3v43.2C448.1,147.4,444.9,150.5,438.7,150.5L438.7,150.5z"/>
	<path fill-rule="evenodd" clip-rule="evenodd" fill="#FEFEFE" d="M377.4,150.5h-33.8c-6.2,0-9.4-3.1-9.4-9.4v-33.8
		c0-6.2,3.1-9.4,9.4-9.4h33.8c6.2,0,9.4,3.1,9.4,9.4v33.8C386.8,147.4,383.6,150.5,377.4,150.5z M354.3,140.1v-31.7h-9.7v31.7H354.3
		z M361.6,103.9v41h2.3v-4.8h12.6v-31.7h-12.6v-4.4L361.6,103.9L361.6,103.9z"/>
	<path fill-rule="evenodd" clip-rule="evenodd" fill="#FEFEFE" d="M315.1,150.5v-21.1h-31.9v21.1h-10.3V98h10.3V119h31.9V98h10.3
		v52.6H315.1z"/>
	<path fill="#C8A93D" d="M368.7,70.6c1.1-4.5-1.7-9.1-6.3-10.1c-4.5-1.1-9.1,1.7-10.1,6.3c-1.1,4.5,1.7,9.1,6.3,10.1
		C363.1,78,367.7,75.2,368.7,70.6z"/>
	<path fill="#FEFEFE" d="M509.4,98h-52.6v10.4h52.6V98z"/>
	<path fill-rule="evenodd" clip-rule="evenodd" fill="#FEFEFE" d="M500,150.5h-43.2v-10.4h38.9c2.2,0,3.3-1.1,3.3-3.3v-4.2
		c0-2.2-1.1-3.3-3.3-3.3h-29.6c-6.2,0-9.4-3.1-9.4-9.4v-1H500c6.2,0,9.4,3.1,9.4,9.4v12.7C509.4,147.4,506.2,150.5,500,150.5
		L500,150.5z"/>
	<path fill-rule="evenodd" clip-rule="evenodd" fill="#FEFEFE" d="M473.8,166.2h-9.1v16.4h-4.8v-16.4h-9v-3.6h22.9L473.8,166.2
		L473.8,166.2z M502.4,182.6H481V166c0-2.2,1.2-3.4,3.5-3.4h17.7v3.4h-16.4v4.5h9.2v3.4h-9.2v5h16.6V182.6L502.4,182.6z
		 M535.9,182.6h-4.6l-2.7-4.4h-13.3l-2.6,4.4H508l11.6-20.1h4.6L535.9,182.6L535.9,182.6z M526.5,174.6l-4.6-8.1l-4.6,8.1H526.5z
		 M570.7,182.6h-4.3v-14.5l-9.2,7.1l-9.3-7.1v14.5h-4.2v-20.1h4.3l9.1,7.4l9.3-7.4h4.2L570.7,182.6L570.7,182.6z"/>
	<path fill="#FEFEFE" d="M440.7,162.6H272.9v4.7h167.9V162.6z"/>
	<path fill="#FEFEFE" d="M440.7,178H272.9v4.7h167.9V178z"/>
</g>
</svg>
