<svg width="24" height="24" viewBox="0 0 24 24" fill="none" xmlns="http://www.w3.org/2000/svg">
<rect width="24" height="24" rx="12" fill="#393245"/>
<mask id="path-2-inside-1_519_20193" fill="white">
<path d="M16.5008 11.3597H12.6387V7.49753C12.6387 7.14534 12.3505 6.85718 11.9983 6.85718C11.6461 6.85718 11.358 7.14534 11.358 7.49753V11.3597H7.49582C7.14363 11.3597 6.85547 11.6478 6.85547 12C6.85547 12.1761 6.92751 12.3362 7.04357 12.4523C7.15964 12.5684 7.31973 12.6404 7.49582 12.6404H11.358V16.5025C11.358 16.6786 11.43 16.8387 11.5461 16.9548C11.6621 17.0709 11.8222 17.1429 11.9983 17.1429C12.3505 17.1429 12.6387 16.8547 12.6387 16.5025V12.6404H16.5008C16.853 12.6404 17.1412 12.3522 17.1412 12C17.1412 11.6478 16.853 11.3597 16.5008 11.3597Z"/>
</mask>
<path d="M12.6387 11.3597H10.6387V13.3597H12.6387V11.3597ZM11.358 11.3597V13.3597H13.358V11.3597H11.358ZM11.358 12.6404H13.358V10.6404H11.358V12.6404ZM12.6387 12.6404V10.6404H10.6387V12.6404H12.6387ZM16.5008 9.35968H12.6387V13.3597H16.5008V9.35968ZM14.6387 11.3597V7.49753H10.6387V11.3597H14.6387ZM14.6387 7.49753C14.6387 6.04077 13.4551 4.85718 11.9983 4.85718V8.85718C11.246 8.85718 10.6387 8.24991 10.6387 7.49753H14.6387ZM11.9983 4.85718C10.5416 4.85718 9.35797 6.04077 9.35797 7.49753H13.358C13.358 8.24991 12.7507 8.85718 11.9983 8.85718V4.85718ZM9.35797 7.49753V11.3597H13.358V7.49753H9.35797ZM11.358 9.35968H7.49582V13.3597H11.358V9.35968ZM7.49582 9.35968C6.03906 9.35968 4.85547 10.5433 4.85547 12H8.85547C8.85547 12.7524 8.2482 13.3597 7.49582 13.3597V9.35968ZM4.85547 12C4.85547 12.7324 5.15686 13.394 5.62936 13.8665L8.45779 11.0381C8.69816 11.2784 8.85547 11.6199 8.85547 12H4.85547ZM5.62936 13.8665C6.10186 14.339 6.7635 14.6404 7.49582 14.6404V10.6404C7.87595 10.6404 8.21742 10.7977 8.45779 11.0381L5.62936 13.8665ZM7.49582 14.6404H11.358V10.6404H7.49582V14.6404ZM9.35797 12.6404V16.5025H13.358V12.6404H9.35797ZM9.35797 16.5025C9.35797 17.2349 9.65936 17.8965 10.1319 18.369L12.9603 15.5406C13.2007 15.7809 13.358 16.1224 13.358 16.5025H9.35797ZM10.1319 18.369C10.6044 18.8415 11.266 19.1429 11.9983 19.1429V15.1429C12.3785 15.1429 12.7199 15.3002 12.9603 15.5406L10.1319 18.369ZM11.9983 19.1429C13.4551 19.1429 14.6387 17.9593 14.6387 16.5025H10.6387C10.6387 15.7502 11.246 15.1429 11.9983 15.1429V19.1429ZM14.6387 16.5025V12.6404H10.6387V16.5025H14.6387ZM12.6387 14.6404H16.5008V10.6404H12.6387V14.6404ZM16.5008 14.6404C17.9576 14.6404 19.1412 13.4568 19.1412 12H15.1412C15.1412 11.2477 15.7485 10.6404 16.5008 10.6404V14.6404ZM19.1412 12C19.1412 10.5433 17.9576 9.35968 16.5008 9.35968V13.3597C15.7485 13.3597 15.1412 12.7524 15.1412 12H19.1412Z" fill="#FFDB59" mask="url(#path-2-inside-1_519_20193)"/>
</svg>
