<svg width="26" height="24" viewBox="0 0 26 24" fill="none" xmlns="http://www.w3.org/2000/svg">
<path d="M5.48945 7V17" stroke="#0A0A0A" stroke-width="1.5" stroke-linecap="round" stroke-linejoin="round"/>
<path d="M19.9055 17V7" stroke="#0A0A0A" stroke-width="1.5" stroke-linecap="round" stroke-linejoin="round"/>
<path fill-rule="evenodd" clip-rule="evenodd" d="M20.9347 21H18.8754C18.307 21 17.8457 20.552 17.8457 20V18C17.8457 17.448 18.307 17 18.8754 17H20.9347C21.5031 17 21.9644 17.448 21.9644 18V20C21.9644 20.552 21.5031 21 20.9347 21Z" stroke="#0A0A0A" stroke-width="1.5" stroke-linecap="round" stroke-linejoin="round"/>
<path fill-rule="evenodd" clip-rule="evenodd" d="M6.52066 21H4.46131C3.89293 21 3.43164 20.552 3.43164 20V18C3.43164 17.448 3.89293 17 4.46131 17H6.52066C7.08904 17 7.55033 17.448 7.55033 18V20C7.55033 20.552 7.08904 21 6.52066 21Z" stroke="#0A0A0A" stroke-width="1.5" stroke-linecap="round" stroke-linejoin="round"/>
<path fill-rule="evenodd" clip-rule="evenodd" d="M20.9347 7H18.8754C18.307 7 17.8457 6.552 17.8457 6V4C17.8457 3.448 18.307 3 18.8754 3H20.9347C21.5031 3 21.9644 3.448 21.9644 4V6C21.9644 6.552 21.5031 7 20.9347 7Z" stroke="#0A0A0A" stroke-width="1.5" stroke-linecap="round" stroke-linejoin="round"/>
<path fill-rule="evenodd" clip-rule="evenodd" d="M6.52066 7H4.46131C3.89293 7 3.43164 6.552 3.43164 6V4C3.43164 3.448 3.89293 3 4.46131 3H6.52066C7.08904 3 7.55033 3.448 7.55033 4V6C7.55033 6.552 7.08904 7 6.52066 7Z" stroke="#0A0A0A" stroke-width="1.5" stroke-linecap="round" stroke-linejoin="round"/>
<path d="M7.54883 19H17.8456" stroke="#0A0A0A" stroke-width="1.5" stroke-linecap="round" stroke-linejoin="round"/>
<path d="M17.8456 5H7.54883" stroke="#0A0A0A" stroke-width="1.5" stroke-linecap="round" stroke-linejoin="round"/>
<path d="M9.60938 15L15.7874 9" stroke="#0A0A0A" stroke-width="1.5" stroke-linecap="round" stroke-linejoin="round"/>
<path d="M12.1836 15H9.60938V12.5" stroke="#0A0A0A" stroke-width="1.5" stroke-linecap="round" stroke-linejoin="round"/>
<path d="M13.2129 9H15.7871V11.5" stroke="#0A0A0A" stroke-width="1.5" stroke-linecap="round" stroke-linejoin="round"/>
</svg>
