<svg width="24" height="24" viewBox="0 0 24 24" fill="none" xmlns="http://www.w3.org/2000/svg">
<path d="M14 7.99833V3.99667C14.0001 3.66864 14.161 3.36151 14.4307 3.17471C14.7003 2.9879 15.0444 2.94514 15.3516 3.06028L20.3536 4.93606C20.7444 5.08253 21.0032 5.45615 21.0029 5.87345V21.0037" stroke="currentColor" stroke-width="2" stroke-linecap="round" stroke-linejoin="round"/>
<path fill-rule="evenodd" clip-rule="evenodd" d="M9.19855 7.99834H14.8009C15.4639 7.99834 16.0014 8.53582 16.0014 9.19884V21.0038H7.99805V9.19884C7.99805 8.53582 8.53553 7.99834 9.19855 7.99834Z" stroke="currentColor" stroke-width="2" stroke-linecap="round" stroke-linejoin="round"/>
<path d="M10.9986 7.99834V5.9975C10.9986 5.44499 10.5507 4.99709 9.99818 4.99709H5.99651C5.444 4.99709 4.99609 5.44499 4.99609 5.9975V10.9996" stroke="currentColor" stroke-width="2" stroke-linecap="round" stroke-linejoin="round"/>
<path d="M7.99826 2.99625V4.99709" stroke="currentColor" stroke-width="2" stroke-linecap="round" stroke-linejoin="round"/>
<path d="M22.0025 21.0037H1.99414" stroke="currentColor" stroke-width="2" stroke-linecap="round" stroke-linejoin="round"/>
<path d="M10.498 13.7007H13.4993" stroke="currentColor" stroke-width="2" stroke-linecap="round" stroke-linejoin="round"/>
<path d="M10.498 10.9996H13.4993" stroke="currentColor" stroke-width="2" stroke-linecap="round" stroke-linejoin="round"/>
<path d="M10.498 16.4018H13.4993" stroke="currentColor" stroke-width="2" stroke-linecap="round" stroke-linejoin="round"/>
<path d="M2.99609 21.0038V12C2.99609 11.4475 3.444 10.9996 3.99651 10.9996H7.99818" stroke="currentColor" stroke-width="2" stroke-linecap="round" stroke-linejoin="round"/>
</svg>
