<svg width="48" height="48" viewBox="0 0 48 48" fill="none" xmlns="http://www.w3.org/2000/svg">
<path fill-rule="evenodd" clip-rule="evenodd" d="M28.002 15.9966V7.99326C28.0022 7.3372 28.3241 6.72295 28.8633 6.34933C29.4026 5.97572 30.0908 5.8902 30.7051 6.12048L40.7092 9.87204C41.4907 10.165 42.0083 10.9122 42.0078 11.7468V42.0074" fill="#D9D9D9"/>
<path d="M28.002 15.9966V7.99326C28.0022 7.3372 28.3241 6.72295 28.8633 6.34933C29.4026 5.97572 30.0908 5.8902 30.7051 6.12048L40.7092 9.87204C41.4907 10.165 42.0083 10.9122 42.0078 11.7468V42.0074H28.002V15.9966Z" fill="#FEFEFE"/>
<path d="M28.002 15.9966V7.99326C28.0022 7.3372 28.3241 6.72295 28.8633 6.34933C29.4026 5.97572 30.0908 5.8902 30.7051 6.12048L40.7092 9.87204C41.4907 10.165 42.0083 10.9122 42.0078 11.7468V42.0074H28.002V15.9966Z" stroke="#FEFEFE" stroke-width="1.5" stroke-linecap="round" stroke-linejoin="round"/>
<path d="M21.9996 15.9966V11.995C21.9996 10.8899 21.1038 9.99414 19.9988 9.99414H11.9955C10.8904 9.99414 9.99463 10.8899 9.99463 11.995V21.9991H21.9996V15.9966Z" fill="#FEFEFE" stroke="#FEFEFE" stroke-width="1.5" stroke-linecap="round" stroke-linejoin="round"/>
<path fill-rule="evenodd" clip-rule="evenodd" d="M5.99268 42.0074V23.9999C5.99268 22.8948 6.88848 21.999 7.99351 21.999H15.9968" fill="#FEFEFE"/>
<path d="M5.99268 42.0074V23.9999C5.99268 22.8948 6.88848 21.999 7.99351 21.999H15.9968V42.0074H5.99268Z" fill="#FEFEFE"/>
<path d="M5.99268 42.0074V23.9999C5.99268 22.8948 6.88848 21.999 7.99351 21.999H15.9968V42.0074H5.99268Z" stroke="#FEFEFE" stroke-width="1.5" stroke-linecap="round" stroke-linejoin="round"/>
<path fill-rule="evenodd" clip-rule="evenodd" d="M18.3976 15.9966H29.6022C30.9283 15.9966 32.0032 17.0715 32.0032 18.3976V42.0074H15.9966V18.3976C15.9966 17.0715 17.0715 15.9966 18.3976 15.9966Z" fill="#FEFEFE" stroke="#423B4E" stroke-width="1.5" stroke-linecap="round" stroke-linejoin="round"/>
<path d="M15.997 5.99243V9.9941" stroke="#FEFEFE" stroke-width="1.5" stroke-linecap="round" stroke-linejoin="round"/>
<path d="M44.0084 42.0075H3.9917" stroke="#FEFEFE" stroke-width="1.5" stroke-linecap="round" stroke-linejoin="round"/>
<path d="M20.999 27.4013H27.0015" stroke="#423B4E" stroke-width="1.5" stroke-linecap="round" stroke-linejoin="round"/>
<path d="M20.999 21.9992H27.0015" stroke="#423B4E" stroke-width="1.5" stroke-linecap="round" stroke-linejoin="round"/>
<path d="M20.999 32.8036H27.0015" stroke="#423B4E" stroke-width="1.5" stroke-linecap="round" stroke-linejoin="round"/>
</svg>
