<svg width="48" height="48" viewBox="0 0 48 48" fill="none" xmlns="http://www.w3.org/2000/svg">
<path d="M28.0017 15.9966V7.99326C28.002 7.3372 28.3238 6.72295 28.8631 6.34933C29.4024 5.97572 30.0905 5.8902 30.7048 6.12048L40.709 9.87204C41.4905 10.165 42.0081 10.9122 42.0075 11.7468V42.0074" stroke="#423B4E" stroke-width="2" stroke-linecap="round" stroke-linejoin="round"/>
<path fill-rule="evenodd" clip-rule="evenodd" d="M18.3976 15.9966H29.6023C30.9283 15.9966 32.0033 17.0715 32.0033 18.3976V42.0074H15.9966V18.3976C15.9966 17.0715 17.0715 15.9966 18.3976 15.9966Z" stroke="#423B4E" stroke-width="2" stroke-linecap="round" stroke-linejoin="round"/>
<path d="M21.9991 15.9966V11.995C21.9991 10.8899 21.1033 9.99414 19.9983 9.99414H11.995C10.8899 9.99414 9.99414 10.8899 9.99414 11.995V21.9991" stroke="#423B4E" stroke-width="2" stroke-linecap="round" stroke-linejoin="round"/>
<path d="M15.9968 5.99243V9.9941" stroke="#423B4E" stroke-width="2" stroke-linecap="round" stroke-linejoin="round"/>
<path d="M44.0084 42.0075H3.9917" stroke="#423B4E" stroke-width="2" stroke-linecap="round" stroke-linejoin="round"/>
<path d="M20.9988 27.4013H27.0013" stroke="#423B4E" stroke-width="2" stroke-linecap="round" stroke-linejoin="round"/>
<path d="M20.9988 21.9992H27.0013" stroke="#423B4E" stroke-width="2" stroke-linecap="round" stroke-linejoin="round"/>
<path d="M20.9988 32.8036H27.0013" stroke="#423B4E" stroke-width="2" stroke-linecap="round" stroke-linejoin="round"/>
<path d="M5.99243 42.0076V24.0001C5.99243 22.8951 6.88824 21.9993 7.99327 21.9993H15.9966" stroke="#423B4E" stroke-width="2" stroke-linecap="round" stroke-linejoin="round"/>
</svg>
