<svg width="26" height="24" viewBox="0 0 26 24" fill="none" xmlns="http://www.w3.org/2000/svg">
<path fill-rule="evenodd" clip-rule="evenodd" d="M15.6295 9.12H12.4859C11.7827 9.12 11.2864 8.451 11.5088 7.804V7.804C11.8537 6.798 12.8226 6.12 13.9141 6.12H14.2003C15.2918 6.12 16.2607 6.798 16.6057 7.804V7.804C16.8281 8.451 16.3318 9.12 15.6295 9.12V9.12Z" stroke="#0A0A0A" stroke-width="1.5" stroke-linecap="round" stroke-linejoin="round"/>
<path d="M7.87152 13.263H4.78971C4.15749 13.263 3.67457 13.811 3.77239 14.417L4.1266 16.617C4.43962 18.565 6.16638 20 8.19587 20H17.8583C19.8878 20 21.6146 18.565 21.9276 16.618L22.2818 14.418C22.3796 13.812 21.8967 13.264 21.2645 13.264H13.2979" stroke="#0A0A0A" stroke-width="1.5" stroke-linecap="round" stroke-linejoin="round"/>
<path d="M14.0586 6.12V6C14.0586 4.343 15.4414 3 17.1476 3V3C18.8538 3 20.2366 4.343 20.2366 6V13.263" stroke="#0A0A0A" stroke-width="1.5" stroke-linecap="round" stroke-linejoin="round"/>
<path fill-rule="evenodd" clip-rule="evenodd" d="M11.1306 17.263H10.0464C8.84989 17.263 7.87891 16.321 7.87891 15.158V13.153C7.87891 12.516 8.41022 12 9.06612 12H12.1109C12.7668 12 13.2981 12.516 13.2981 13.153V15.158C13.2981 16.321 12.3281 17.263 11.1306 17.263Z" stroke="#0A0A0A" stroke-width="1.5" stroke-linecap="round" stroke-linejoin="round"/>
<path d="M6.89117 19.8L5.82031 21" stroke="#0A0A0A" stroke-width="1.5" stroke-linecap="round" stroke-linejoin="round"/>
<path d="M20.2349 21L19.1641 19.8" stroke="#0A0A0A" stroke-width="1.5" stroke-linecap="round" stroke-linejoin="round"/>
</svg>
