<svg width="24" height="24" viewBox="0 0 24 24" fill="none" xmlns="http://www.w3.org/2000/svg">
<path fill-rule="evenodd" clip-rule="evenodd" d="M14.527 9.12H11.474C10.791 9.12 10.309 8.451 10.525 7.804V7.804C10.86 6.798 11.801 6.12 12.861 6.12H13.139C14.199 6.12 15.14 6.798 15.475 7.804V7.804C15.691 8.451 15.209 9.12 14.527 9.12V9.12Z" stroke="#0A0A0A" stroke-width="1.5" stroke-linecap="round" stroke-linejoin="round"/>
<path d="M6.99302 13.2629H4.00002C3.38602 13.2629 2.91702 13.8109 3.01202 14.4169L3.35602 16.6169C3.66002 18.5649 5.33702 19.9999 7.30802 19.9999H16.692C18.663 19.9999 20.34 18.5649 20.644 16.6179L20.988 14.4179C21.083 13.8119 20.614 13.2639 20 13.2639H12.263" stroke="#0A0A0A" stroke-width="1.5" stroke-linecap="round" stroke-linejoin="round"/>
<path d="M13 6.12V6C13 4.343 14.343 3 16 3V3C17.657 3 19 4.343 19 6V13.263" stroke="#0A0A0A" stroke-width="1.5" stroke-linecap="round" stroke-linejoin="round"/>
<path fill-rule="evenodd" clip-rule="evenodd" d="M10.158 17.263H9.105C7.943 17.263 7 16.321 7 15.158V13.153C7 12.516 7.516 12 8.153 12H11.11C11.747 12 12.263 12.516 12.263 13.153V15.158C12.263 16.321 11.321 17.263 10.158 17.263Z" stroke="#0A0A0A" stroke-width="1.5" stroke-linecap="round" stroke-linejoin="round"/>
<path d="M6.04 19.8L5 21" stroke="#0A0A0A" stroke-width="1.5" stroke-linecap="round" stroke-linejoin="round"/>
<path d="M19 21L17.96 19.8" stroke="#0A0A0A" stroke-width="1.5" stroke-linecap="round" stroke-linejoin="round"/>
</svg>
