<svg width="24" height="24" viewBox="0 0 24 24" fill="none" xmlns="http://www.w3.org/2000/svg">
<path d="M3 12.75C3 12.1533 3.27092 11.581 3.75315 11.159C4.23539 10.7371 4.88944 10.5 5.57143 10.5H9.42857C10.1106 10.5 10.7646 10.7371 11.2468 11.159C11.7291 11.581 12 12.1533 12 12.75" stroke="#0A0A0A" stroke-width="1.5" stroke-linecap="round" stroke-linejoin="round"/>
<path d="M2.83344 19.5V18.1539M13.4999 14.1157V16.8078C13.4999 17.1648 13.3594 17.5072 13.1093 17.7597C12.8593 18.0121 12.5202 18.1539 12.1666 18.1539H2.83344C2.47983 18.1539 2.1407 18.0121 1.89066 17.7597C1.64061 17.5072 1.50014 17.1648 1.50014 16.8078V14.1157C1.49729 13.9179 1.53764 13.7219 1.61834 13.5417C1.69904 13.3614 1.81809 13.2013 1.96703 13.0728C2.11597 12.9443 2.29113 12.8505 2.48006 12.7981C2.66899 12.7457 2.86703 12.736 3.0601 12.7696C3.38163 12.8349 3.6696 13.0138 3.87238 13.274C4.07517 13.5342 4.17953 13.8589 4.16675 14.1897V15.4618H10.8333V14.1897C10.8205 13.8589 10.9248 13.5342 11.1276 13.274C11.3304 13.0138 11.6184 12.8349 11.9399 12.7696C12.133 12.736 12.331 12.7457 12.5199 12.7981C12.7089 12.8505 12.884 12.9443 13.033 13.0728C13.1819 13.2013 13.301 13.3614 13.3817 13.5417C13.4624 13.7219 13.5027 13.9179 13.4999 14.1157V14.1157ZM12.1666 19.5V18.1539V19.5Z" stroke="#0A0A0A" stroke-width="1.5" stroke-linecap="round" stroke-linejoin="round"/>
<path d="M16.725 19.5H20.025H16.725ZM18.375 19.5V10.3333V19.5ZM22.5 10.3333C21.5702 8.79267 21.0186 7.04977 20.8913 5.25001C20.8707 5.04374 20.7748 4.8526 20.6223 4.71392C20.4697 4.57524 20.2715 4.49897 20.0663 4.50001H16.6755C16.4703 4.49897 16.272 4.57524 16.1195 4.71392C15.9669 4.8526 15.871 5.04374 15.8505 5.25001C15.7256 7.04907 15.1769 8.79192 14.25 10.3333H22.5Z" stroke="#0A0A0A" stroke-width="1.5" stroke-linecap="round" stroke-linejoin="round"/>
</svg>
