<svg width="24" height="24" viewBox="0 0 24 24" fill="none" xmlns="http://www.w3.org/2000/svg">
<path d="M11.791 9.20521L15.2052 5.79106" stroke="white" stroke-width="1.5" stroke-linecap="round" stroke-linejoin="round"/>
<path d="M11.5739 5.65456C11.5741 5.60903 11.6111 5.57224 11.6566 5.57232C11.7021 5.5724 11.739 5.60933 11.739 5.65486C11.739 5.70038 11.7021 5.73731 11.6566 5.73739C11.6111 5.73747 11.5741 5.70068 11.5739 5.65516V5.65456" stroke="white" stroke-width="1.5" stroke-linecap="round" stroke-linejoin="round"/>
<path d="M7.99805 6.99792V5.29721C7.99805 3.47391 9.47612 1.99583 11.2994 1.99583H15.7013C17.5246 1.99583 19.0026 3.47391 19.0026 5.29721V9.69904C19.0026 11.5223 17.5246 13.0004 15.7013 13.0004H15.001" stroke="white" stroke-width="1.5" stroke-linecap="round" stroke-linejoin="round"/>
<path d="M15.4265 9.3417C15.4263 9.38722 15.3893 9.42401 15.3438 9.42393C15.2983 9.42385 15.2614 9.38692 15.2614 9.34139C15.2614 9.29587 15.2983 9.25894 15.3438 9.25886C15.3893 9.25878 15.4263 9.29557 15.4265 9.34109V9.3417" stroke="white" stroke-width="1.5" stroke-linecap="round" stroke-linejoin="round"/>
<path d="M19.0022 16.0017V21.0037" stroke="white" stroke-width="1.5" stroke-linecap="round" stroke-linejoin="round"/>
<path d="M17.002 18.0025L19.0028 16.0017" stroke="white" stroke-width="1.5" stroke-linecap="round" stroke-linejoin="round"/>
<path d="M21.0028 18.0025L19.002 16.0017" stroke="white" stroke-width="1.5" stroke-linecap="round" stroke-linejoin="round"/>
<path d="M2.99609 12.6003V19.4031C2.99723 20.2869 4.7877 21.0037 6.99776 21.0037C9.20782 21.0037 10.9983 20.2869 10.9994 19.4031V12.6003" stroke="white" stroke-width="1.5" stroke-linecap="round" stroke-linejoin="round"/>
<path d="M10.9983 12.6003C10.9983 13.4841 9.20668 14.2009 6.99662 14.2009C4.78656 14.2009 2.99609 13.4841 2.99609 12.6003C2.99609 11.7153 4.78884 10.9996 6.99776 10.9996C9.20668 10.9996 10.9983 11.7165 10.9994 12.6003" stroke="white" stroke-width="1.5" stroke-linecap="round" stroke-linejoin="round"/>
<path d="M2.99609 16.0017C2.99609 16.8855 4.78656 17.6023 6.99662 17.6023C9.20668 17.6023 10.9983 16.8855 10.9983 16.0017" stroke="white" stroke-width="1.5" stroke-linecap="round" stroke-linejoin="round"/>
</svg>
