<svg width="24" height="24" viewBox="0 0 24 24" fill="none" xmlns="http://www.w3.org/2000/svg">
<path d="M16.2651 13.4216H8.78794C7.68248 13.4216 6.78711 12.5262 6.78711 11.4208V8.68262" stroke="#423B4E" stroke-width="1.5" stroke-linecap="round" stroke-linejoin="round"/>
<path d="M10.9994 18.0025H4.99693C3.89147 18.0025 2.99609 17.1071 2.99609 16.0017V4.99708C2.99609 3.89162 3.89147 2.99625 4.99693 2.99625H11.9998C13.1053 2.99625 14.0007 3.89162 14.0007 4.99708V5.9975" stroke="#423B4E" stroke-width="1.5" stroke-linecap="round" stroke-linejoin="round"/>
<path d="M11 10.9996V7.99833C11 6.89287 11.8954 5.9975 13.0008 5.9975H19.0033C20.1088 5.9975 21.0042 6.89287 21.0042 7.99833V19.0029C21.0042 20.1084 20.1088 21.0038 19.0033 21.0038H13.0008C11.8954 21.0038 11 20.1084 11 19.0029V16.0017" stroke="#423B4E" stroke-width="1.5" stroke-linecap="round" stroke-linejoin="round"/>
<path d="M14.3691 15.3174L16.2649 13.4216L14.3691 11.5258" stroke="#423B4E" stroke-width="1.5" stroke-linecap="round" stroke-linejoin="round"/>
</svg>
