<svg width="24" height="24" viewBox="0 0 24 24" fill="none" xmlns="http://www.w3.org/2000/svg">
<path d="M21 13.067V18.972C21 20.092 20.099 21 18.987 21H5.013C3.901 21 3 20.092 3 18.972V6.028C3 4.908 3.901 4 5.013 4H12" stroke="#423B4E" stroke-width="1.5" stroke-linecap="round" stroke-linejoin="round"/>
<path d="M7.82812 17.172L11.5591 16.239C11.7351 16.195 11.8951 16.104 12.0241 15.976L20.4141 7.586C21.1951 6.805 21.1951 5.539 20.4141 4.758L20.2421 4.586C19.4611 3.805 18.1951 3.805 17.4141 4.586L9.02412 12.976C8.89612 13.104 8.80513 13.265 8.76113 13.441L7.82813 17.172" stroke="#423B4E" stroke-width="1.5" stroke-linecap="round" stroke-linejoin="round"/>
<path d="M15.8301 6.17L18.8301 9.17" stroke="#423B4E" stroke-width="1.5" stroke-linecap="round" stroke-linejoin="round"/>
<path d="M11.5468 16.242C11.5608 16.136 11.5788 16.031 11.5788 15.921C11.5788 14.54 10.4598 13.421 9.07881 13.421C8.96881 13.421 8.86381 13.44 8.75781 13.453" stroke="#423B4E" stroke-width="1.5" stroke-linecap="round" stroke-linejoin="round"/>
</svg>
