<svg width="24" height="24" viewBox="0 0 24 24" fill="none" xmlns="http://www.w3.org/2000/svg">
<path fill-rule="evenodd" clip-rule="evenodd" d="M9.49846 10.7494H14.5005C15.0531 10.7494 15.501 11.1973 15.501 11.7498V13.0003C15.501 14.2435 14.4932 15.2513 13.25 15.2513H10.749C9.50583 15.2513 8.49805 14.2435 8.49805 13.0003V11.7498C8.49805 11.1973 8.94595 10.7494 9.49846 10.7494Z" stroke="#423B4E" stroke-width="2" stroke-linecap="round" stroke-linejoin="round"/>
<path d="M10.0334 10.7495V8.49854" stroke="#423B4E" stroke-width="2" stroke-linecap="round" stroke-linejoin="round"/>
<path d="M13.9631 10.7495V8.49854" stroke="#423B4E" stroke-width="2" stroke-linecap="round" stroke-linejoin="round"/>
<path d="M16.0015 20.0544C19.9741 18.0781 21.913 13.5008 20.5687 9.27234C19.2244 5.04384 14.9983 2.42657 10.6137 3.10715C6.22919 3.78773 2.99532 7.56295 2.9961 12C2.99399 14.486 3.98178 16.8705 5.74124 18.6268V18.6268C7.05049 19.9311 8.82322 20.6636 10.6713 20.6636V20.6636C11.4048 20.6631 11.9993 20.0686 11.9998 19.3351V15.2514" stroke="#423B4E" stroke-width="2" stroke-linecap="round" stroke-linejoin="round"/>
</svg>
