<svg width="24" height="24" viewBox="0 0 24 24" fill="none" xmlns="http://www.w3.org/2000/svg">
<path d="M12.0001 19C11.1581 19 10.3151 18.822 9.49609 18.505" stroke="#727272" stroke-width="1.5" stroke-linecap="round" stroke-linejoin="round"/>
<path d="M20.882 12.468C18.99 15.967 15.495 19 12 19" stroke="#727272" stroke-width="1.5" stroke-linecap="round" stroke-linejoin="round"/>
<path d="M19.0781 8.921C19.7691 9.73 20.3831 10.612 20.8811 11.533C21.0381 11.824 21.0381 12.177 20.8811 12.468" stroke="#727272" stroke-width="1.5" stroke-linecap="round" stroke-linejoin="round"/>
<path d="M5 19L19 5" stroke="#727272" stroke-width="1.5" stroke-linecap="round" stroke-linejoin="round"/>
<path d="M9.77406 14.227C8.54406 12.997 8.54406 11.002 9.77406 9.772C11.0041 8.542 12.9991 8.542 14.2291 9.772" stroke="#727272" stroke-width="1.5" stroke-linecap="round" stroke-linejoin="round"/>
<path d="M17.0437 6.956C15.4967 5.759 13.7478 5 11.9998 5C8.50475 5 5.00975 8.033 3.11775 11.533C2.96075 11.824 2.96075 12.177 3.11775 12.468C4.06375 14.217 5.40975 15.849 6.95575 17.045" stroke="#727272" stroke-width="1.5" stroke-linecap="round" stroke-linejoin="round"/>
</svg>
