<svg width="24" height="24" viewBox="0 0 24 24" fill="none" xmlns="http://www.w3.org/2000/svg">
<path fill-rule="evenodd" clip-rule="evenodd" d="M3.13575 14.998C2.95475 14.693 2.95475 14.307 3.13575 14.002C5.04075 10.779 8.52075 8 12.0007 8C15.4807 8 18.9597 10.779 20.8647 14.001C21.0457 14.307 21.0457 14.694 20.8647 15C18.9597 18.221 15.4807 21 12.0007 21C8.52075 21 5.04075 18.221 3.13575 14.998Z" stroke="#625676" stroke-width="1.5" stroke-linecap="round" stroke-linejoin="round"/>
<path d="M14.122 12.379C15.294 13.551 15.294 15.45 14.122 16.622C12.95 17.794 11.051 17.794 9.879 16.622C8.707 15.45 8.707 13.551 9.879 12.379C11.051 11.207 12.951 11.207 14.122 12.379" stroke="#625676" stroke-width="1.4286" stroke-linecap="round" stroke-linejoin="round"/>
<path d="M12 2.5V5" stroke="#625676" stroke-width="1.5" stroke-linecap="round" stroke-linejoin="round"/>
<path d="M5 4.5L6.68 6.5" stroke="#625676" stroke-width="1.5" stroke-linecap="round" stroke-linejoin="round"/>
<path d="M19.0003 4.5L17.3203 6.5" stroke="#625676" stroke-width="1.5" stroke-linecap="round" stroke-linejoin="round"/>
</svg>
