<?xml version="1.0" encoding="utf-8"?>
<svg viewBox="346.9715 392.8924 56 56" width="56" height="56" xmlns="http://www.w3.org/2000/svg">
  <defs>
    <clipPath id="clip0_364_117865">
      <rect width="56" height="56" fill="white" transform="translate(304 349)" />
    </clipPath>
  </defs>
  <g clip-path="url(#clip0_364_117865)"
    transform="matrix(1, 0, 0, 1, 42.97154299872431, 43.892449079341425)">
    <path d="M304 377C304 361.536 316.536 349 332 349H360V405H332C316.536 405 304 392.464 304 377Z"
      fill="#423B4E" />
    <path d="M338 370H341" stroke="#FEFEFE" stroke-width="2" stroke-linecap="round"
      stroke-linejoin="round" />
    <path d="M323 370H334" stroke="#FEFEFE" stroke-width="2" stroke-linecap="round"
      stroke-linejoin="round" />
    <path d="M330 377H341" stroke="#FEFEFE" stroke-width="2" stroke-linecap="round"
      stroke-linejoin="round" />
    <path d="M323 377H326" stroke="#FEFEFE" stroke-width="2" stroke-linecap="round"
      stroke-linejoin="round" />
    <path d="M338 384H341" stroke="#FEFEFE" stroke-width="2" stroke-linecap="round"
      stroke-linejoin="round" />
    <path d="M323 384H334" stroke="#FEFEFE" stroke-width="2" stroke-linecap="round"
      stroke-linejoin="round" />
    <path
      d="M337.414 368.586C338.195 369.367 338.195 370.633 337.414 371.414C336.633 372.195 335.367 372.195 334.586 371.414C333.805 370.633 333.805 369.367 334.586 368.586C335.367 367.805 336.633 367.805 337.414 368.586"
      stroke="#FEFEFE" stroke-width="2" stroke-linecap="round" stroke-linejoin="round" />
    <path
      d="M329.414 375.586C330.195 376.367 330.195 377.633 329.414 378.414C328.633 379.195 327.367 379.195 326.586 378.414C325.805 377.633 325.805 376.367 326.586 375.586C327.367 374.805 328.633 374.805 329.414 375.586"
      stroke="#FEFEFE" stroke-width="2" stroke-linecap="round" stroke-linejoin="round" />
    <path
      d="M337.414 382.586C338.195 383.367 338.195 384.633 337.414 385.414C336.633 386.195 335.367 386.195 334.586 385.414C333.805 384.633 333.805 383.367 334.586 382.586C335.367 381.805 336.633 381.805 337.414 382.586"
      stroke="#FEFEFE" stroke-width="2" stroke-linecap="round" stroke-linejoin="round" />
  </g>
</svg>