<svg width="24" height="24" viewBox="0 0 24 24" fill="none" xmlns="http://www.w3.org/2000/svg">
  <path
    d="M20 21H4V3H20V21ZM3 21H21H3ZM3 3H21H3ZM8 7H16H8ZM15.11 17.89C15.1402 16.9587 14.9191 16.0364 14.47 15.22C14.3846 15.5108 14.239 15.7805 14.0426 16.0113C13.8462 16.2422 13.6034 16.4291 13.33 16.56C13.269 15.8342 13.037 15.1332 12.6528 14.5144C12.2687 13.8956 11.7434 13.3766 11.12 13C11.12 15.67 8.89 15.67 8.89 17.89C8.88184 18.3007 8.95671 18.7087 9.11011 19.0897C9.26351 19.4707 9.49229 19.8168 9.78272 20.1073C10.0732 20.3977 10.4193 20.6265 10.8003 20.7799C11.1813 20.9333 11.5893 21.0082 12 21C14.67 21 15.11 19.29 15.11 17.89Z"
    stroke="#423B4E" stroke-width="2" stroke-linecap="round" stroke-linejoin="round" />
</svg>
  