<svg width="24" height="24" viewBox="0 0 24 24" fill="none" xmlns="http://www.w3.org/2000/svg">
  <path
    d="M5 9C5 7.93913 5.42143 6.92172 6.17157 6.17157C6.92172 5.42143 7.93913 5 9 5H15C16.0609 5 17.0783 5.42143 17.8284 6.17157C18.5786 6.92172 19 7.93913 19 9"
    stroke="#423B4E" stroke-width="2" stroke-linecap="round" stroke-linejoin="round" />
  <path
    d="M4.99997 19V17M21 11V15C21 15.5304 20.7893 16.0391 20.4142 16.4142C20.0391 16.7893 19.5304 17 19 17H4.99997C4.46954 17 3.96083 16.7893 3.58575 16.4142C3.21068 16.0391 2.99997 15.5304 2.99997 15V11C2.99568 10.7061 3.05622 10.4149 3.17727 10.1471C3.29832 9.87928 3.4769 9.64143 3.70031 9.45048C3.92373 9.25953 4.18648 9.12016 4.46988 9.04229C4.75328 8.96443 5.05035 8.94998 5.33997 8.99997C5.82227 9.09704 6.25423 9.36272 6.55842 9.74937C6.86261 10.136 7.01915 10.6184 6.99997 11.11V13H17V11.11C16.9808 10.6184 17.1373 10.136 17.4415 9.74937C17.7457 9.36272 18.1777 9.09704 18.66 8.99997C18.9496 8.94998 19.2467 8.96443 19.5301 9.04229C19.8135 9.12016 20.0762 9.25953 20.2996 9.45048C20.523 9.64143 20.7016 9.87928 20.8227 10.1471C20.9437 10.4149 21.0043 10.7061 21 11V11ZM19 19V17V19Z"
    stroke="#423B4E" stroke-width="2" stroke-linecap="round" stroke-linejoin="round" />
</svg>
  