<svg width="24" height="24" viewBox="0 0 24 24" fill="none" xmlns="http://www.w3.org/2000/svg">
  <path d="M8.60938 6.99789H12.3889" stroke="#423B4E" stroke-width="2" stroke-linecap="round"
    stroke-linejoin="round" />
  <path d="M8.9993 11.9999H5.99805V19.0028" stroke="#423B4E" stroke-width="2" stroke-linecap="round"
    stroke-linejoin="round" />
  <path
    d="M5.99752 19.003H1.99585V7.56019C1.99585 6.87385 2.3681 6.2415 2.96825 5.90851L9.58201 2.23398C10.1528 1.9168 10.847 1.9168 11.4178 2.23398L18.0315 5.90851C18.6311 6.24192 19.0029 6.87412 19.0029 7.56019V8.99879"
    stroke="#423B4E" stroke-width="2" stroke-linecap="round" stroke-linejoin="round" />
  <path
    d="M22.004 17.8025C22.004 16.6974 21.1082 15.8016 20.0032 15.8016H11.9999C10.8948 15.8016 9.99902 16.6974 9.99902 17.8025"
    stroke="#423B4E" stroke-width="2" stroke-linecap="round" stroke-linejoin="round" />
  <path
    d="M9.99902 17.8024V21.0037C9.99902 21.5562 10.4469 22.0041 10.9994 22.0041H11.9899C12.5424 22.0041 12.9903 21.5562 12.9903 21.0037V20.3424H19.0128V21.0037C19.0128 21.5562 19.4607 22.0041 20.0132 22.0041H21.0036C21.5561 22.0041 22.004 21.5562 22.004 21.0037V17.8024"
    stroke="#423B4E" stroke-width="2" stroke-linecap="round" stroke-linejoin="round" />
  <path d="M13.7378 18.1025H12.2422" stroke="#423B4E" stroke-width="2" stroke-linecap="round"
    stroke-linejoin="round" />
  <path d="M19.7612 18.1025H18.2656" stroke="#423B4E" stroke-width="2" stroke-linecap="round"
    stroke-linejoin="round" />
  <path d="M20.5085 15.7386L22.0042 14.9913" stroke="#423B4E" stroke-width="2"
    stroke-linecap="round" stroke-linejoin="round" />
  <path d="M11.4996 15.7385L9.99902 14.9912" stroke="#423B4E" stroke-width="2"
    stroke-linecap="round" stroke-linejoin="round" />
  <path
    d="M13.5684 11.9999C12.874 12.0016 12.2715 12.4796 12.1118 13.1554L11.4775 15.8665L12.1118 13.1554C12.2715 12.4796 12.874 12.0016 13.5684 11.9999H18.4344C19.1288 12.0016 19.7313 12.4796 19.891 13.1554L20.5253 15.8665"
    stroke="#423B4E" stroke-width="2" stroke-linecap="round" stroke-linejoin="round" />
</svg>
  