<svg width="24" height="24" viewBox="0 0 24 24" fill="none" xmlns="http://www.w3.org/2000/svg">
  <path
    d="M10 13V15H14V13M18 21H6V16C6 15.7348 6.10536 15.4804 6.29289 15.2929C6.48043 15.1054 6.73478 15 7 15H17C17.2652 15 17.5196 15.1054 17.7071 15.2929C17.8946 15.4804 18 15.7348 18 16V21ZM10 7C9.98065 7.26761 10.0191 7.53625 10.1128 7.78768C10.2064 8.03911 10.3531 8.26744 10.5428 8.45716C10.7326 8.64688 10.9609 8.79356 11.2123 8.88722C11.4637 8.98089 11.7324 9.01935 12 9C12.2664 9.01443 12.5329 8.97259 12.7821 8.87718C13.0313 8.78178 13.2576 8.63496 13.4463 8.44629C13.635 8.25761 13.7818 8.03131 13.8772 7.78212C13.9726 7.53293 14.0144 7.26644 14 7C14 5.66 13 5.5 13 3C11 4 10 5.59 10 7ZM4 21H20H4Z"
    stroke="#423B4E" stroke-width="2" stroke-linecap="round" stroke-linejoin="round" />
</svg>
  