<svg width="24" height="24" viewBox="0 0 24 24" fill="none" xmlns="http://www.w3.org/2000/svg">
  <path d="M8.99859 21.0037H4.71081C3.76403 21.0031 2.99665 20.2357 2.99609 19.289V16.0016"
    stroke="#423B4E" stroke-width="2" stroke-linecap="round" stroke-linejoin="round" />
  <path d="M16.0017 3.9967H19.2891C20.2359 3.99726 21.0032 4.76464 21.0038 5.71142V8.99879"
    stroke="#423B4E" stroke-width="2" stroke-linecap="round" stroke-linejoin="round" />
  <path d="M6.99801 2.49604V1.99583" stroke="#423B4E" stroke-width="2" stroke-linecap="round"
    stroke-linejoin="round" />
  <path d="M6.99801 11.9999V11.4997" stroke="#423B4E" stroke-width="2" stroke-linecap="round"
    stroke-linejoin="round" />
  <path d="M10.1791 3.81658L10.5342 3.46143" stroke="#423B4E" stroke-width="2"
    stroke-linecap="round" stroke-linejoin="round" />
  <path d="M3.46131 10.5343L3.81645 10.1792" stroke="#423B4E" stroke-width="2"
    stroke-linecap="round" stroke-linejoin="round" />
  <path d="M11.4999 6.99789H12.0001" stroke="#423B4E" stroke-width="2" stroke-linecap="round"
    stroke-linejoin="round" />
  <path d="M1.9962 6.99789H2.49641" stroke="#423B4E" stroke-width="2" stroke-linecap="round"
    stroke-linejoin="round" />
  <path d="M10.1791 10.1792L10.5342 10.5343" stroke="#423B4E" stroke-width="2"
    stroke-linecap="round" stroke-linejoin="round" />
  <path d="M3.46131 3.46143L3.81645 3.81658" stroke="#423B4E" stroke-width="2"
    stroke-linecap="round" stroke-linejoin="round" />
  <circle cx="6.99846" cy="6.99784" r="2.10588" stroke="#423B4E" stroke-width="2"
    stroke-linecap="round" stroke-linejoin="round" />
  <path fill-rule="evenodd" clip-rule="evenodd"
    d="M16.2766 12.3001L13.0883 17.7153C12.9743 17.9056 12.9704 18.1422 13.0781 18.3362C13.1858 18.5301 13.3887 18.6519 13.6105 18.6557H16.5957V21.3808C16.5899 21.6574 16.7717 21.903 17.038 21.9781C17.3043 22.0532 17.5877 21.9389 17.7272 21.7L20.9155 16.2847C21.0295 16.0944 21.0334 15.8578 20.9257 15.6639C20.818 15.47 20.6151 15.3482 20.3933 15.3443H17.4081V12.6222C17.4154 12.345 17.234 12.0981 16.9673 12.0222C16.7006 11.9462 16.4164 12.0606 16.2766 12.3001Z"
    stroke="#423B4E" stroke-width="2" stroke-linecap="round" stroke-linejoin="round" />
</svg>
  