<svg width="24" height="24" viewBox="0 0 24 24" fill="none" xmlns="http://www.w3.org/2000/svg">
  <path d="M3 7.3C5.52153 5.18379 8.70813 4.0238 12 4.0238C15.2919 4.0238 18.4785 5.18379 21 7.3"
    stroke="#423B4E" stroke-width="2" stroke-linecap="round" stroke-linejoin="round" />
  <path
    d="M18.45 10.36C16.6458 8.83718 14.361 8.00183 12 8.00183C9.63908 8.00183 7.35426 8.83718 5.55005 10.36"
    stroke="#423B4E" stroke-width="2" stroke-linecap="round" stroke-linejoin="round" />
  <path
    d="M15.8699 13.41C14.7874 12.4963 13.4165 11.9951 11.9999 11.9951C10.5833 11.9951 9.21241 12.4963 8.12988 13.41"
    stroke="#423B4E" stroke-width="2" stroke-linecap="round" stroke-linejoin="round" />
  <path
    d="M10 18C10 18.5304 10.2107 19.0391 10.5858 19.4142C10.9609 19.7893 11.4696 20 12 20C12.5304 20 13.0391 19.7893 13.4142 19.4142C13.7893 19.0391 14 18.5304 14 18C14 17.4696 13.7893 16.9609 13.4142 16.5858C13.0391 16.2107 12.5304 16 12 16C11.4696 16 10.9609 16.2107 10.5858 16.5858C10.2107 16.9609 10 17.4696 10 18Z"
    stroke="#423B4E" stroke-width="2" stroke-linecap="round" stroke-linejoin="round" />
</svg>
  