<svg width="40" height="40" viewBox="0 0 40 40" fill="none" xmlns="http://www.w3.org/2000/svg">
<path fill-rule="evenodd" clip-rule="evenodd" d="M21.6709 10.918C21.2031 10.7043 20.6781 10.681 20.1977 10.8436L15.7751 12.3404L7.42557 15.1043C6.46218 15.4232 6.00169 16.2995 6.05822 17.1444L6 17.1214V22.605L20.7953 28.187L34.33 22.1623L34.3303 17.413L34.3296 17.4115V17.3776C34.3356 17.3622 34.3412 17.3466 34.3465 17.3308C34.4399 17.0545 34.4269 16.768 34.3296 16.5156V16.4039C34.3192 16.4139 34.3077 16.4244 34.2953 16.4351C34.287 16.4175 34.2782 16.4001 34.2691 16.3829C34.1303 16.1219 33.8955 15.9114 33.5935 15.8093C29.199 14.3248 23.0713 11.5578 21.6709 10.918ZM20.8186 13.168C22.1904 13.7928 26.6311 15.7895 30.6163 17.2909L20.8844 21.5486L20.922 21.6345C20.8091 21.5246 20.6726 21.4352 20.5163 21.375L9.24149 17.0321L16.5334 14.6184L20.8186 13.168ZM21.2851 22.4645L21.3072 22.515L21.2852 22.5245C21.2856 22.5044 21.2856 22.4844 21.2851 22.4645Z" fill="currentColor"/>
<path d="M33.8307 30.2471C34.1326 30.1195 34.3296 29.8171 34.3296 29.4815L34.3299 24.7902L21.6215 30.4472C21.1404 30.6613 20.5943 30.6772 20.1017 30.4913L6 25.171V29.4718C6 29.8122 6.20273 30.118 6.51097 30.2424L20.193 35.7648C20.3863 35.8428 20.6015 35.8411 20.7935 35.7598L33.8307 30.2471Z" fill="currentColor"/>
<path d="M19.4466 5.3168C20.774 6.74271 21.2614 10.2881 21.2614 10.2881C21.2614 10.2881 22.6324 7.72472 24.2861 7.44737L28.0941 6.8087C28.3063 6.77312 28.4903 6.95127 28.4537 7.16325C28.2828 8.15246 27.7671 10.6043 26.7058 11.7085C25.2479 13.2254 21.2614 13.108 21.2614 13.108V10.2881C21.2614 10.2881 18.0723 11.3695 16.422 10.2881C14.6972 9.15796 14.157 5.34008 14.0332 4.2125C14.0139 4.03714 14.1427 3.88641 14.319 3.88095C15.2705 3.85152 18.1195 3.89105 19.4466 5.3168Z" fill="currentColor"/>
<path d="M21.2614 10.2881C21.2614 10.2881 20.774 6.74271 19.4466 5.3168C18.1195 3.89105 15.2705 3.85152 14.319 3.88095C14.1427 3.88641 14.0139 4.03714 14.0332 4.2125C14.157 5.34008 14.6972 9.15796 16.422 10.2881C18.0723 11.3695 21.2614 10.2881 21.2614 10.2881ZM21.2614 10.2881C21.2614 10.2881 22.6324 7.72472 24.2861 7.44737L28.0941 6.8087C28.3063 6.77312 28.4903 6.95127 28.4537 7.16325C28.2828 8.15246 27.7671 10.6043 26.7058 11.7085C25.2479 13.2254 21.2614 13.108 21.2614 13.108M21.2614 10.2881V13.108M21.2614 13.108V16.6798" stroke="currentColor" stroke-width="1.5" stroke-linecap="round"/>
</svg>
