<svg width="29" height="33" viewBox="0 0 29 33" fill="none" xmlns="http://www.w3.org/2000/svg">
  <path
    d="M10.8849 11.6393L10.8849 11.6393L10.8908 11.6374L10.8925 11.6368L10.893 11.6366L15.3427 10.1306L27.4091 14.2069V19.7877V26.116L14.5262 31.4146L1 26.1043V20.4875V14.9114L10.8849 11.6393ZM27.7189 25.9886L27.7184 25.9888C27.7186 25.9887 27.7187 25.9886 27.7189 25.9886L27.9091 26.451L27.7189 25.9886Z"
    stroke="#0A0A0A" stroke-width="2" stroke-linecap="round" />
  <path
    d="M14.5922 13.9199V10.3158M14.5922 7.47051C14.5922 7.47051 14.1004 3.89309 12.7611 2.45432C11.3589 0.948002 8.27331 0.975163 7.46472 1.01003C7.3546 1.01478 7.27463 1.10775 7.28577 1.21741C7.3822 2.16678 7.8995 6.28473 9.70913 7.47051C11.3743 8.56162 14.5922 7.47051 14.5922 7.47051ZM14.5922 7.47051C14.5922 7.47051 15.9756 4.88396 17.6442 4.60411C18.9906 4.37829 20.9463 4.05031 21.6512 3.93208C21.7837 3.90985 21.8983 4.0206 21.8769 4.15327C21.7378 5.01159 21.2213 7.72225 20.0857 8.90371C18.6146 10.4343 14.5922 10.3158 14.5922 10.3158M14.5922 7.47051V10.3158"
    stroke="#0A0A0A" stroke-width="2" stroke-linecap="round" />
</svg>