<svg width="48" height="48" viewBox="0 0 48 48" fill="none" xmlns="http://www.w3.org/2000/svg">
<path fill-rule="evenodd" clip-rule="evenodd" d="M8.00006 24C8.00006 15.1635 15.1635 8.00006 24 8.00006C32.8366 8.00006 40 15.1635 40 24C40 32.8366 32.8366 40 24 40C15.1635 40 8.00006 32.8366 8.00006 24ZM26.3553 15.1477C26.826 14.6812 27.5858 14.6846 28.0523 15.1553C28.5189 15.626 28.5155 16.3858 28.0448 16.8523L25.224 19.648C24.0792 20.7827 23.2939 21.5635 22.7626 22.2252C22.2464 22.8679 22.0693 23.2807 22.0222 23.6504C21.9926 23.8826 21.9926 24.1175 22.0222 24.3496C22.0693 24.7194 22.2464 25.1322 22.7626 25.7749C23.2939 26.4365 24.0792 27.2174 25.224 28.352L28.0448 31.1477C28.5155 31.6142 28.5189 32.374 28.0523 32.8447C27.5858 33.3155 26.826 33.3189 26.3553 32.8523L23.4837 30.0063C22.4022 28.9343 21.5182 28.0583 20.8913 27.2777C20.2394 26.466 19.7675 25.6421 19.6415 24.6531C19.5862 24.2194 19.5862 23.7806 19.6415 23.347C19.7675 22.358 20.2394 21.5341 20.8913 20.7224C21.5182 19.9418 22.4022 19.0657 23.4837 17.9938L26.3553 15.1477Z" fill="#9288A5"/>
</svg>
