<svg width="24" height="24" viewBox="0 0 24 24" fill="none" xmlns="http://www.w3.org/2000/svg">
<path d="M11.9983 10.9996V3.31784" stroke="#423B4E" stroke-width="1.5" stroke-linecap="round" stroke-linejoin="round"/>
<path fill-rule="evenodd" clip-rule="evenodd" d="M12 10.9996L15.0013 7.99833L12 10.9996Z" stroke="#423B4E" stroke-width="1.5" stroke-linecap="round" stroke-linejoin="round"/>
<path d="M2.99609 15.0012H7.37992C7.75852 15.0012 8.10468 15.215 8.27429 15.5535L8.72148 16.4489C8.89097 16.788 9.23767 17.0023 9.61685 17.0021H14.3818C14.761 17.0023 15.1077 16.788 15.2772 16.4489L15.7244 15.5545C15.8939 15.2153 16.2406 15.0011 16.6198 15.0012H21.0036" stroke="#423B4E" stroke-width="1.5" stroke-linecap="round" stroke-linejoin="round"/>
<path d="M15.0011 2.99625H18.0023C19.6599 2.99625 21.0036 4.33996 21.0036 5.9975V18.0025C21.0036 19.66 19.6599 21.0037 18.0023 21.0037H5.99734C4.3398 21.0037 2.99609 19.66 2.99609 18.0025V5.9975C2.99609 4.33996 4.3398 2.99625 5.99734 2.99625H8.99859" stroke="#423B4E" stroke-width="1.5" stroke-linecap="round" stroke-linejoin="round"/>
<path fill-rule="evenodd" clip-rule="evenodd" d="M8.99805 7.99833L11.9993 10.9996L8.99805 7.99833Z" stroke="#423B4E" stroke-width="1.5" stroke-linecap="round" stroke-linejoin="round"/>
</svg>
