<svg width="24" height="24" viewBox="0 0 24 24" fill="none" xmlns="http://www.w3.org/2000/svg">
  <path d="M16.752 19.5031H8.99878" stroke="#423B4E" stroke-width="2" stroke-linecap="round"
    stroke-linejoin="round" />
  <path d="M8.78448 15.6432L7.97179 18.0812" stroke="#423B4E" stroke-width="2"
    stroke-linecap="round" stroke-linejoin="round" />
  <circle cx="7.49867" cy="19.5032" r="1.50063" stroke="#423B4E" stroke-width="2"
    stroke-linecap="round" stroke-linejoin="round" />
  <path d="M15.2461 15.6317L17.3352 21.0037" stroke="#423B4E" stroke-width="2"
    stroke-linecap="round" stroke-linejoin="round" />
  <path fill-rule="evenodd" clip-rule="evenodd"
    d="M4.99749 7.99841H19.0033C19.5558 7.99841 20.0037 8.44631 20.0037 8.99883V8.99883C20.0037 12.3139 17.3163 15.0013 14.0012 15.0013H9.99957C6.68448 15.0013 3.99707 12.3139 3.99707 8.99883V8.99883C3.99707 8.44631 4.44497 7.99841 4.99749 7.99841Z"
    stroke="#423B4E" stroke-width="2" stroke-linecap="round" stroke-linejoin="round" />
  <path
    d="M8.24826 4.99698C7.91478 4.55235 7.91478 3.94098 8.24826 3.49635C8.58173 3.05172 8.58173 2.44036 8.24826 1.99573"
    stroke="#423B4E" stroke-width="2" stroke-linecap="round" stroke-linejoin="round" />
  <path
    d="M15.7522 4.99698C15.4187 4.55235 15.4187 3.94098 15.7522 3.49635C16.0856 3.05172 16.0856 2.44036 15.7522 1.99573"
    stroke="#423B4E" stroke-width="2" stroke-linecap="round" stroke-linejoin="round" />
  <path
    d="M12.0002 4.9971C11.6667 4.55247 11.6667 3.9411 12.0002 3.49647C12.3337 3.05184 12.3337 2.44048 12.0002 1.99585"
    stroke="#423B4E" stroke-width="2" stroke-linecap="round" stroke-linejoin="round" />
</svg>
  