<svg width="18" height="18" viewBox="0 0 18 18" fill="none" xmlns="http://www.w3.org/2000/svg">
<g clip-path="url(#clip0_724_2654)" filter="url(#filter0_i_724_2654)">
<path d="M0.578125 8.82902C0.578125 4.0884 4.29174 0.578918 9.08339 0.578918C13.875 0.578918 17.5887 4.0884 17.5887 8.82902C17.5887 13.5696 13.875 17.0791 9.08339 17.0791C8.22223 17.0791 7.39722 16.9654 6.62111 16.7527C6.47062 16.7109 6.3103 16.7221 6.16715 16.7846L4.47885 17.531C4.37689 17.5759 4.26543 17.5952 4.15429 17.587C4.04314 17.5788 3.93571 17.5435 3.84143 17.4841C3.74715 17.4246 3.66891 17.343 3.61358 17.2462C3.55826 17.1495 3.52754 17.0406 3.52414 16.9292L3.47736 15.4164C3.47412 15.3243 3.45219 15.2338 3.4129 15.1505C3.3736 15.0671 3.31776 14.9926 3.24878 14.9316C1.5945 13.4516 0.578125 11.3083 0.578125 8.82902ZM6.4744 7.27788L3.97598 11.2413C3.73677 11.6219 4.20349 12.0504 4.56178 11.7793L7.24625 9.74228C7.33454 9.67522 7.44228 9.63873 7.55315 9.63835C7.66402 9.63797 7.772 9.6737 7.86076 9.74015L9.8478 11.2307C9.98878 11.3364 10.1501 11.4118 10.3217 11.4521C10.4933 11.4923 10.6713 11.4966 10.8446 11.4646C11.0179 11.4327 11.1827 11.3652 11.3286 11.2663C11.4745 11.1675 11.5984 11.0396 11.6924 10.8905L14.1908 6.92703C14.4311 6.54642 13.9633 6.11797 13.605 6.38908L10.9205 8.42609C10.8322 8.49315 10.7245 8.52963 10.6136 8.53001C10.5028 8.5304 10.3948 8.49466 10.306 8.42821L8.31898 6.9366C8.17799 6.83088 8.01663 6.75551 7.84507 6.71524C7.67351 6.67498 7.49547 6.67069 7.32217 6.70265C7.14886 6.73462 6.98407 6.80214 6.83816 6.90095C6.69225 6.99977 6.56839 7.12775 6.4744 7.27681V7.27788Z" fill="url(#paint0_linear_724_2654)"/>
</g>
<defs>
<filter id="filter0_i_724_2654" x="0.578125" y="0.578918" width="17.0098" height="21.0105" filterUnits="userSpaceOnUse" color-interpolation-filters="sRGB">
<feFlood flood-opacity="0" result="BackgroundImageFix"/>
<feBlend mode="normal" in="SourceGraphic" in2="BackgroundImageFix" result="shape"/>
<feColorMatrix in="SourceAlpha" type="matrix" values="0 0 0 0 0 0 0 0 0 0 0 0 0 0 0 0 0 0 127 0" result="hardAlpha"/>
<feOffset dy="4"/>
<feGaussianBlur stdDeviation="7.5"/>
<feComposite in2="hardAlpha" operator="arithmetic" k2="-1" k3="1"/>
<feColorMatrix type="matrix" values="0 0 0 0 0 0 0 0 0 0 0 0 0 0 0 0 0 0 0.2 0"/>
<feBlend mode="normal" in2="shape" result="effect1_innerShadow_724_2654"/>
</filter>
<linearGradient id="paint0_linear_724_2654" x1="9.08339" y1="0.578918" x2="6.35445" y2="17.4962" gradientUnits="userSpaceOnUse">
<stop stop-color="#00B1FF"/>
<stop offset="1" stop-color="#006BFF"/>
</linearGradient>
<clipPath id="clip0_724_2654">
<rect width="17.0105" height="17.0105" fill="white" transform="translate(0.578125 0.578918)"/>
</clipPath>
</defs>
</svg>
