<svg width="24" height="24" viewBox="0 0 24 24" fill="none" xmlns="http://www.w3.org/2000/svg">
  <path
    d="M3 15C10.0294 15 21 15 21 15M12 2V5.07692V6.61538V8.15385V8.53846M12 15V9.69231V8.92308V8.53846M12 15H19V2.68376C19 2.50242 18.8946 2.3285 18.7071 2.20027C18.5196 2.07204 18.2652 2 18 2H6C5.73478 2 5.48043 2.07204 5.29289 2.20027C5.10536 2.3285 5 2.50242 5 2.68376V15H8.5H12ZM12 8.53846H15"
    stroke="#423B4E" stroke-width="2" stroke-linecap="round" stroke-linejoin="round" />
  <path
    d="M2 15H12M22 15H12M12 15V18.1429V23H7.55556M12 15H7.55556M12 15H16.4444M7.55556 15H3.11111V18.1429V22.2143C3.11111 22.4227 3.22817 22.6225 3.43655 22.7699C3.64492 22.9172 3.92754 23 4.22222 23H7.55556M7.55556 15V18.1429V23M7.55556 23H19.7778C20.0725 23 20.3551 22.9172 20.5635 22.7699C20.7718 22.6225 20.8889 22.4227 20.8889 22.2143V18.1429V15H16.4444M16.4444 15V18.1429V22.2143"
    stroke="#423B4E" stroke-width="2" stroke-linecap="round" stroke-linejoin="round" />
</svg>
 