<svg width="54" height="54" viewBox="0 0 54 54" fill="none" xmlns="http://www.w3.org/2000/svg">
<path d="M45 6.75V15.75" stroke="#423B4E" stroke-width="3" stroke-linecap="round" stroke-linejoin="round"/>
<path d="M40.5 11.25H49.5" stroke="#423B4E" stroke-width="3" stroke-linecap="round" stroke-linejoin="round"/>
<path d="M31.5 11.25H11.25C8.76375 11.25 6.75 13.2637 6.75 15.75V42.75C6.75 45.2363 8.76375 47.25 11.25 47.25H40.5C42.9863 47.25 45 45.2363 45 42.75V24.75" stroke="#423B4E" stroke-width="3" stroke-linecap="round" stroke-linejoin="round"/>
<path fill-rule="evenodd" clip-rule="evenodd" d="M15.6749 32.5508L19.0589 27.1823C19.8442 25.9381 21.5924 25.7693 22.6004 26.8403L25.0192 29.4098L27.5549 24.0211C28.3357 22.3606 30.6712 22.2841 31.5599 23.8906L36.4064 32.6611C37.2344 34.1618 36.1477 36.0001 34.4354 36.0001H17.5784C15.8054 36.0001 14.7299 34.0493 15.6749 32.5508Z" stroke="#423B4E" stroke-width="3" stroke-linecap="round" stroke-linejoin="round"/>
</svg>
