<svg width="48" height="48" viewBox="0 0 48 48" fill="none" xmlns="http://www.w3.org/2000/svg">
<path fill-rule="evenodd" clip-rule="evenodd" d="M40 24C40 15.1634 32.8366 8 24 8C15.1634 8 8 15.1634 8 24C8 32.8366 15.1634 40 24 40C32.8366 40 40 32.8366 40 24ZM21.6447 15.1477C21.174 14.6812 20.4142 14.6845 19.9477 15.1553C19.4812 15.626 19.4846 16.3858 19.9553 16.8523L22.776 19.648C23.9208 20.7826 24.7061 21.5635 25.2375 22.2251C25.7536 22.8678 25.9307 23.2807 25.9778 23.6504C26.0074 23.8825 26.0074 24.1175 25.9778 24.3496C25.9307 24.7193 25.7536 25.1322 25.2375 25.7749C24.7061 26.4365 23.9208 27.2174 22.776 28.352L19.9553 31.1477C19.4846 31.6142 19.4812 32.374 19.9477 32.8447C20.4142 33.3154 21.174 33.3188 21.6447 32.8523L24.5163 30.0062C25.5979 28.9343 26.4818 28.0583 27.1087 27.2777C27.7606 26.4659 28.2325 25.642 28.3585 24.6531C28.4138 24.2194 28.4138 23.7806 28.3585 23.3469C28.2325 22.358 27.7606 21.5341 27.1087 20.7223C26.4818 19.9417 25.5979 19.0657 24.5163 17.9938L21.6447 15.1477Z" fill="#B4ACC0"/>
</svg>
