<svg width="24" height="24" viewBox="0 0 24 24" fill="none" xmlns="http://www.w3.org/2000/svg">
  <path d="M6 21L9.4 12.25" stroke="#423B4E" stroke-width="2" stroke-linecap="round" stroke-linejoin="round"/>
  <path d="M13.5801 14.79L16.0001 21" stroke="#423B4E" stroke-width="2" stroke-linecap="round" stroke-linejoin="round"/>
  <path d="M15.37 7.68002L19 4.00002M4 21H18H4ZM11 3.31002C10.8929 3.20373 10.7644 3.12153 10.623 3.0689C10.4816 3.01627 10.3306 2.99443 10.1801 3.00485C10.0296 3.01526 9.88301 3.05768 9.75021 3.12928C9.61741 3.20088 9.50142 3.3 9.41 3.42002C8.43394 4.82888 7.98243 6.53523 8.13398 8.24245C8.28552 9.94968 9.03052 11.5498 10.2395 12.7647C11.4484 13.9796 13.0449 14.7325 14.7514 14.8924C16.4578 15.0523 18.1664 14.6092 19.58 13.64C19.7 13.5486 19.7991 13.4326 19.8707 13.2998C19.9423 13.167 19.9848 13.0205 19.9952 12.8699C20.0056 12.7194 19.9837 12.5684 19.9311 12.427C19.8785 12.2856 19.7963 12.1571 19.69 12.05L11 3.31002Z" stroke="#423B4E" stroke-width="2" stroke-linecap="round" stroke-linejoin="round"/>
  <path d="M19.0499 4H18.95" stroke="#423B4E" stroke-width="3" stroke-linecap="round" stroke-linejoin="round"/>
  </svg>
  