<svg width="24" height="24" viewBox="0 0 24 24" fill="none" xmlns="http://www.w3.org/2000/svg">
<path d="M17 3H18C19.657 3 21 4.343 21 6V18C21 19.657 19.657 21 18 21H6C4.343 21 3 19.657 3 18V16.986" stroke="#625676" stroke-width="1.5" stroke-linecap="round" stroke-linejoin="round"/>
<path fill-rule="evenodd" clip-rule="evenodd" d="M10 5.637C6.175 5.637 3 7.589 3 12.148V13.063C4.294 10.069 6.98 9.764 10 9.764V11.65C10 12.301 10.772 12.643 11.254 12.206L15.754 8.127C16.09 7.823 16.081 7.293 15.736 6.999L11.236 3.18C10.748 2.766 10 3.112 10 3.751V5.637Z" stroke="#625676" stroke-width="1.5" stroke-linecap="round" stroke-linejoin="round"/>
</svg>
