<svg width="24" height="24" viewBox="0 0 24 24" fill="none" xmlns="http://www.w3.org/2000/svg">
  <path d="M7.99805 21.0037H4.71069C3.7639 21.0031 2.99652 20.2357 2.99597 19.289V16.0016"
    stroke="#423B4E" stroke-width="2" stroke-linecap="round" stroke-linejoin="round" />
  <path d="M16.0017 3.9967H19.2891C20.2359 3.99726 21.0032 4.76464 21.0038 5.71142V8.99879"
    stroke="#423B4E" stroke-width="2" stroke-linecap="round" stroke-linejoin="round" />
  <path d="M6.99789 2.49604V1.99583" stroke="#423B4E" stroke-width="2" stroke-linecap="round"
    stroke-linejoin="round" />
  <path d="M6.99789 11.9999V11.4997" stroke="#423B4E" stroke-width="2" stroke-linecap="round"
    stroke-linejoin="round" />
  <path d="M10.179 3.81658L10.5341 3.46143" stroke="#423B4E" stroke-width="2" stroke-linecap="round"
    stroke-linejoin="round" />
  <path d="M3.46118 10.5343L3.81633 10.1792" stroke="#423B4E" stroke-width="2"
    stroke-linecap="round" stroke-linejoin="round" />
  <path d="M11.4997 6.99789H11.9999" stroke="#423B4E" stroke-width="2" stroke-linecap="round"
    stroke-linejoin="round" />
  <path d="M1.99608 6.99789H2.49628" stroke="#423B4E" stroke-width="2" stroke-linecap="round"
    stroke-linejoin="round" />
  <path d="M10.179 10.1792L10.5341 10.5343" stroke="#423B4E" stroke-width="2" stroke-linecap="round"
    stroke-linejoin="round" />
  <path d="M11.9089 14.1829V21.0037H21.0037V14.1829" stroke="#423B4E" stroke-width="2"
    stroke-linecap="round" stroke-linejoin="round" />
  <path d="M10.7715 14.9783L16.4559 10.9996L22.1402 14.9783" stroke="#423B4E" stroke-width="2"
    stroke-linecap="round" stroke-linejoin="round" />
  <path
    d="M18.1613 21.0038V17.8204C18.1613 17.1928 17.6524 16.684 17.0248 16.684H15.8883C15.2606 16.684 14.7518 17.1928 14.7518 17.8204V21.0038"
    stroke="#423B4E" stroke-width="2" stroke-linecap="round" stroke-linejoin="round" />
  <path d="M3.46118 3.46143L3.81633 3.81658" stroke="#423B4E" stroke-width="2"
    stroke-linecap="round" stroke-linejoin="round" />
  <circle cx="6.99833" cy="6.99784" r="2.10588" stroke="#423B4E" stroke-width="2"
    stroke-linecap="round" stroke-linejoin="round" />
</svg>
  