<svg width="24" height="24" viewBox="0 0 24 24" fill="none" xmlns="http://www.w3.org/2000/svg">
  <path
    d="M12.0813 1.59314C16.0897 1.59314 19.5498 3.94007 21.1625 7.33488H3C4.61271 3.94007 8.07282 1.59314 12.0813 1.59314Z"
    stroke="#423B4E" stroke-width="2" stroke-linejoin="round" />
  <path d="M12.0811 7.33484V22.4069" stroke="#423B4E" stroke-width="2" />
  <path
    d="M21.6943 10.9235C21.6943 10.3712 21.2466 9.92346 20.6943 9.92346C20.1421 9.92346 19.6943 10.3712 19.6943 10.9235H21.6943ZM21.6943 22.4069V10.9235H19.6943V22.4069H21.6943Z"
    fill="#423B4E" />
  <path d="M20.6946 17.3829H15.6706C15.2744 17.3829 14.9529 17.7045 14.9529 18.1007V22.407"
    stroke="#423B4E" stroke-width="2" />
  <path
    d="M4.46973 10.9235C4.46973 10.3712 4.02201 9.92346 3.46973 9.92346C2.91744 9.92346 2.46973 10.3712 2.46973 10.9235H4.46973ZM4.46973 22.4069V10.9235H2.46973V22.4069H4.46973Z"
    fill="#423B4E" />
  <path d="M3.46973 17.3829H8.49375C8.88993 17.3829 9.21146 17.7045 9.21146 18.1007V22.407"
    stroke="#423B4E" stroke-width="2" />
  <path d="M7 14.5121H17.92" stroke="#423B4E" stroke-width="2" stroke-linecap="round" />
</svg>
  