<svg width="28" height="28" viewBox="0 0 28 28" fill="none" xmlns="http://www.w3.org/2000/svg">
  <rect width="28" height="28" rx="14" fill="currentColor" />
  <path
    d="M18.4684 4.2002H15.0155V17.5509C15.0155 19.1417 13.6876 20.4483 12.035 20.4483C10.3823 20.4483 9.05435 19.1417 9.05435 17.5509C9.05435 15.9886 10.3528 14.7103 11.9464 14.6535V11.3017C8.43461 11.3584 5.60156 14.1138 5.60156 17.5509C5.60156 21.0164 8.49363 23.8002 12.0645 23.8002C15.6353 23.8002 18.5273 20.988 18.5273 17.5509V10.7051C19.8258 11.6141 21.4194 12.1538 23.1016 12.1822V8.83034C20.5046 8.74512 18.4684 6.6999 18.4684 4.2002Z"
    fill="#433B4F" />
</svg>