<?xml version="1.0" encoding="utf-8"?>
<svg viewBox="111.2449 280.4887 70.5 72.5" width="70.5" height="72.5"
  xmlns="http://www.w3.org/2000/svg">
  <defs>
    <filter id="filter1_i_441_35454" x="348.5" y="21.5" width="69" height="69"
      filterUnits="userSpaceOnUse" color-interpolation-filters="sRGB">
      <feFlood flood-opacity="0" result="BackgroundImageFix" />
      <feBlend mode="normal" in="SourceGraphic" in2="BackgroundImageFix" result="shape" />
      <feColorMatrix in="SourceAlpha" type="matrix"
        values="0 0 0 0 0 0 0 0 0 0 0 0 0 0 0 0 0 0 127 0" result="hardAlpha" />
      <feOffset />
      <feGaussianBlur stdDeviation="4" />
      <feComposite in2="hardAlpha" operator="arithmetic" k2="-1" k3="1" />
      <feColorMatrix type="matrix" values="0 0 0 0 1 0 0 0 0 1 0 0 0 0 1 0 0 0 0.8 0" />
      <feBlend mode="normal" in2="shape" result="effect1_innerShadow_441_35454" />
    </filter>
    <filter id="filter3_i_441_35454" x="351" y="18" width="50" height="38"
      filterUnits="userSpaceOnUse" color-interpolation-filters="sRGB">
      <feFlood flood-opacity="0" result="BackgroundImageFix" />
      <feBlend mode="normal" in="SourceGraphic" in2="BackgroundImageFix" result="shape" />
      <feColorMatrix in="SourceAlpha" type="matrix"
        values="0 0 0 0 0 0 0 0 0 0 0 0 0 0 0 0 0 0 127 0" result="hardAlpha" />
      <feOffset />
      <feGaussianBlur stdDeviation="4" />
      <feComposite in2="hardAlpha" operator="arithmetic" k2="-1" k3="1" />
      <feColorMatrix type="matrix" values="0 0 0 0 1 0 0 0 0 1 0 0 0 0 1 0 0 0 0.8 0" />
      <feBlend mode="normal" in2="shape" result="effect1_innerShadow_441_35454" />
    </filter>
    <filter id="filter4_bii_441_35454" x="343" y="15" width="55" height="45"
      filterUnits="userSpaceOnUse" color-interpolation-filters="sRGB">
      <feFlood flood-opacity="0" result="BackgroundImageFix" />
      <feGaussianBlur in="BackgroundImageFix" stdDeviation="2" />
      <feComposite in2="SourceAlpha" operator="in" result="effect1_backgroundBlur_441_35454" />
      <feBlend mode="normal" in="SourceGraphic" in2="effect1_backgroundBlur_441_35454"
        result="shape" />
      <feColorMatrix in="SourceAlpha" type="matrix"
        values="0 0 0 0 0 0 0 0 0 0 0 0 0 0 0 0 0 0 127 0" result="hardAlpha" />
      <feOffset />
      <feGaussianBlur stdDeviation="2" />
      <feComposite in2="hardAlpha" operator="arithmetic" k2="-1" k3="1" />
      <feColorMatrix type="matrix" values="0 0 0 0 1 0 0 0 0 1 0 0 0 0 1 0 0 0 1 0" />
      <feBlend mode="normal" in2="shape" result="effect2_innerShadow_441_35454" />
      <feColorMatrix in="SourceAlpha" type="matrix"
        values="0 0 0 0 0 0 0 0 0 0 0 0 0 0 0 0 0 0 127 0" result="hardAlpha" />
      <feOffset dy="4" />
      <feGaussianBlur stdDeviation="4" />
      <feComposite in2="hardAlpha" operator="arithmetic" k2="-1" k3="1" />
      <feColorMatrix type="matrix" values="0 0 0 0 1 0 0 0 0 1 0 0 0 0 1 0 0 0 1 0" />
      <feBlend mode="normal" in2="effect2_innerShadow_441_35454"
        result="effect3_innerShadow_441_35454" />
    </filter>
  </defs>
  <g transform="matrix(1, 0, 0, 1, -243.16290645544086, 64.20926761939029)">
    <g>
      <g filter="url(#filter1_i_441_35454)" transform="matrix(1, 0, 0, 1, 7.407843, 198.279407)">
        <path fill-rule="evenodd" clip-rule="evenodd"
          d="M402.167 21.5H406C412.352 21.5 417.5 26.6482 417.5 33V79C417.5 85.3518 412.352 90.5 406 90.5H360C353.648 90.5 348.5 85.3518 348.5 79V75.113"
          fill="#FFDB59" />
      </g>
    </g>
    <g filter="url(#filter3_i_441_35454)" transform="matrix(1, 0, 0, 1, 7.407843, 198.279407)">
      <path fill-rule="evenodd" clip-rule="evenodd"
        d="M377.922 27.9579C363.211 27.9579 351 35.329 351 52.5448V56C355.977 44.694 366.307 43.5423 377.922 43.5423V50.6642C377.922 53.1225 380.891 54.414 382.745 52.7638L400.052 37.3606C401.344 36.2127 401.31 34.2113 399.983 33.1011L382.676 18.6798C380.799 17.1164 377.922 18.423 377.922 20.836V27.9579Z"
        fill="#FFDB59" />
    </g>
    <g>
      <g filter="url(#filter4_bii_441_35454)" transform="matrix(1, 0, 0, 1, 7.407843, 198.279407)">
        <path fill-rule="evenodd" clip-rule="evenodd"
          d="M372.307 28.6958C358.478 28.6958 347 35.873 347 52.6357V56C351.678 44.9916 361.389 43.8701 372.307 43.8701V50.8046C372.307 53.1983 375.098 54.4557 376.84 52.849L393.109 37.8512C394.324 36.7334 394.291 34.7847 393.044 33.7037L376.775 19.6619C375.011 18.1397 372.307 19.4118 372.307 21.7613V28.6958Z"
          fill="white" fill-opacity="0.4" />
      </g>
    </g>
  </g>
</svg>