<?xml version="1.0" encoding="utf-8"?>
<svg viewBox="207.158 110.0595 79.087 64.5268" width="79.087" height="64.5268"
  xmlns="http://www.w3.org/2000/svg">
  <defs>
    <filter id="filter1_i_441_35502" x="364.492" y="27.9062" width="14.3398" height="10.7545"
      filterUnits="userSpaceOnUse" color-interpolation-filters="sRGB">
      <feFlood flood-opacity="0" result="BackgroundImageFix" />
      <feBlend mode="normal" in="SourceGraphic" in2="BackgroundImageFix" result="shape" />
      <feColorMatrix in="SourceAlpha" type="matrix"
        values="0 0 0 0 0 0 0 0 0 0 0 0 0 0 0 0 0 0 127 0" result="hardAlpha" />
      <feOffset />
      <feGaussianBlur stdDeviation="4" />
      <feComposite in2="hardAlpha" operator="arithmetic" k2="-1" k3="1" />
      <feColorMatrix type="matrix" values="0 0 0 0 1 0 0 0 0 1 0 0 0 0 1 0 0 0 0.8 0" />
      <feBlend mode="normal" in2="shape" result="effect1_innerShadow_441_35502" />
    </filter>
    <filter id="filter2_i_441_35502" x="400.34" y="49.4152" width="17.9238" height="25.0938"
      filterUnits="userSpaceOnUse" color-interpolation-filters="sRGB">
      <feFlood flood-opacity="0" result="BackgroundImageFix" />
      <feBlend mode="normal" in="SourceGraphic" in2="BackgroundImageFix" result="shape" />
      <feColorMatrix in="SourceAlpha" type="matrix"
        values="0 0 0 0 0 0 0 0 0 0 0 0 0 0 0 0 0 0 127 0" result="hardAlpha" />
      <feOffset />
      <feGaussianBlur stdDeviation="4" />
      <feComposite in2="hardAlpha" operator="arithmetic" k2="-1" k3="1" />
      <feColorMatrix type="matrix" values="0 0 0 0 1 0 0 0 0 1 0 0 0 0 1 0 0 0 0.8 0" />
      <feBlend mode="normal" in2="shape" result="effect1_innerShadow_441_35502" />
    </filter>
    <filter id="filter3_i_441_35502" x="396.754" y="20.7366" width="14.3398" height="14.3393"
      filterUnits="userSpaceOnUse" color-interpolation-filters="sRGB">
      <feFlood flood-opacity="0" result="BackgroundImageFix" />
      <feBlend mode="normal" in="SourceGraphic" in2="BackgroundImageFix" result="shape" />
      <feColorMatrix in="SourceAlpha" type="matrix"
        values="0 0 0 0 0 0 0 0 0 0 0 0 0 0 0 0 0 0 127 0" result="hardAlpha" />
      <feOffset />
      <feGaussianBlur stdDeviation="4" />
      <feComposite in2="hardAlpha" operator="arithmetic" k2="-1" k3="1" />
      <feColorMatrix type="matrix" values="0 0 0 0 1 0 0 0 0 1 0 0 0 0 1 0 0 0 0.8 0" />
      <feBlend mode="normal" in2="shape" result="effect1_innerShadow_441_35502" />
    </filter>
    <filter id="filter4_i_441_35502" x="357.322" y="38.6607" width="28.6777" height="46.6027"
      filterUnits="userSpaceOnUse" color-interpolation-filters="sRGB">
      <feFlood flood-opacity="0" result="BackgroundImageFix" />
      <feBlend mode="normal" in="SourceGraphic" in2="BackgroundImageFix" result="shape" />
      <feColorMatrix in="SourceAlpha" type="matrix"
        values="0 0 0 0 0 0 0 0 0 0 0 0 0 0 0 0 0 0 127 0" result="hardAlpha" />
      <feOffset />
      <feGaussianBlur stdDeviation="4" />
      <feComposite in2="hardAlpha" operator="arithmetic" k2="-1" k3="1" />
      <feColorMatrix type="matrix" values="0 0 0 0 1 0 0 0 0 1 0 0 0 0 1 0 0 0 0.8 0" />
      <feBlend mode="normal" in2="shape" result="effect1_innerShadow_441_35502" />
    </filter>
    <filter id="filter5_bii_441_35502" x="353.102" y="23.9062" width="22.3398" height="18.7545"
      filterUnits="userSpaceOnUse" color-interpolation-filters="sRGB">
      <feFlood flood-opacity="0" result="BackgroundImageFix" />
      <feGaussianBlur in="BackgroundImageFix" stdDeviation="2" />
      <feComposite in2="SourceAlpha" operator="in" result="effect1_backgroundBlur_441_35502" />
      <feBlend mode="normal" in="SourceGraphic" in2="effect1_backgroundBlur_441_35502"
        result="shape" />
      <feColorMatrix in="SourceAlpha" type="matrix"
        values="0 0 0 0 0 0 0 0 0 0 0 0 0 0 0 0 0 0 127 0" result="hardAlpha" />
      <feOffset />
      <feGaussianBlur stdDeviation="2" />
      <feComposite in2="hardAlpha" operator="arithmetic" k2="-1" k3="1" />
      <feColorMatrix type="matrix" values="0 0 0 0 1 0 0 0 0 1 0 0 0 0 1 0 0 0 1 0" />
      <feBlend mode="normal" in2="shape" result="effect2_innerShadow_441_35502" />
      <feColorMatrix in="SourceAlpha" type="matrix"
        values="0 0 0 0 0 0 0 0 0 0 0 0 0 0 0 0 0 0 127 0" result="hardAlpha" />
      <feOffset dy="4" />
      <feGaussianBlur stdDeviation="4" />
      <feComposite in2="hardAlpha" operator="arithmetic" k2="-1" k3="1" />
      <feColorMatrix type="matrix" values="0 0 0 0 1 0 0 0 0 1 0 0 0 0 1 0 0 0 1 0" />
      <feBlend mode="normal" in2="effect2_innerShadow_441_35502"
        result="effect3_innerShadow_441_35502" />
    </filter>
    <filter id="filter6_bii_441_35502" x="388.949" y="45.4152" width="25.9238" height="33.0938"
      filterUnits="userSpaceOnUse" color-interpolation-filters="sRGB">
      <feFlood flood-opacity="0" result="BackgroundImageFix" />
      <feGaussianBlur in="BackgroundImageFix" stdDeviation="2" />
      <feComposite in2="SourceAlpha" operator="in" result="effect1_backgroundBlur_441_35502" />
      <feBlend mode="normal" in="SourceGraphic" in2="effect1_backgroundBlur_441_35502"
        result="shape" />
      <feColorMatrix in="SourceAlpha" type="matrix"
        values="0 0 0 0 0 0 0 0 0 0 0 0 0 0 0 0 0 0 127 0" result="hardAlpha" />
      <feOffset />
      <feGaussianBlur stdDeviation="2" />
      <feComposite in2="hardAlpha" operator="arithmetic" k2="-1" k3="1" />
      <feColorMatrix type="matrix" values="0 0 0 0 1 0 0 0 0 1 0 0 0 0 1 0 0 0 1 0" />
      <feBlend mode="normal" in2="shape" result="effect2_innerShadow_441_35502" />
      <feColorMatrix in="SourceAlpha" type="matrix"
        values="0 0 0 0 0 0 0 0 0 0 0 0 0 0 0 0 0 0 127 0" result="hardAlpha" />
      <feOffset dy="4" />
      <feGaussianBlur stdDeviation="4" />
      <feComposite in2="hardAlpha" operator="arithmetic" k2="-1" k3="1" />
      <feColorMatrix type="matrix" values="0 0 0 0 1 0 0 0 0 1 0 0 0 0 1 0 0 0 1 0" />
      <feBlend mode="normal" in2="effect2_innerShadow_441_35502"
        result="effect3_innerShadow_441_35502" />
    </filter>
    <filter id="filter7_bii_441_35502" x="385.363" y="16.7366" width="22.3398" height="22.3393"
      filterUnits="userSpaceOnUse" color-interpolation-filters="sRGB">
      <feFlood flood-opacity="0" result="BackgroundImageFix" />
      <feGaussianBlur in="BackgroundImageFix" stdDeviation="2" />
      <feComposite in2="SourceAlpha" operator="in" result="effect1_backgroundBlur_441_35502" />
      <feBlend mode="normal" in="SourceGraphic" in2="effect1_backgroundBlur_441_35502"
        result="shape" />
      <feColorMatrix in="SourceAlpha" type="matrix"
        values="0 0 0 0 0 0 0 0 0 0 0 0 0 0 0 0 0 0 127 0" result="hardAlpha" />
      <feOffset />
      <feGaussianBlur stdDeviation="2" />
      <feComposite in2="hardAlpha" operator="arithmetic" k2="-1" k3="1" />
      <feColorMatrix type="matrix" values="0 0 0 0 1 0 0 0 0 1 0 0 0 0 1 0 0 0 1 0" />
      <feBlend mode="normal" in2="shape" result="effect2_innerShadow_441_35502" />
      <feColorMatrix in="SourceAlpha" type="matrix"
        values="0 0 0 0 0 0 0 0 0 0 0 0 0 0 0 0 0 0 127 0" result="hardAlpha" />
      <feOffset dy="4" />
      <feGaussianBlur stdDeviation="4" />
      <feComposite in2="hardAlpha" operator="arithmetic" k2="-1" k3="1" />
      <feColorMatrix type="matrix" values="0 0 0 0 1 0 0 0 0 1 0 0 0 0 1 0 0 0 1 0" />
      <feBlend mode="normal" in2="effect2_innerShadow_441_35502"
        result="effect3_innerShadow_441_35502" />
    </filter>
    <filter id="filter8_bii_441_35502" x="345.932" y="34.6607" width="36.6777" height="54.6027"
      filterUnits="userSpaceOnUse" color-interpolation-filters="sRGB">
      <feFlood flood-opacity="0" result="BackgroundImageFix" />
      <feGaussianBlur in="BackgroundImageFix" stdDeviation="2" />
      <feComposite in2="SourceAlpha" operator="in" result="effect1_backgroundBlur_441_35502" />
      <feBlend mode="normal" in="SourceGraphic" in2="effect1_backgroundBlur_441_35502"
        result="shape" />
      <feColorMatrix in="SourceAlpha" type="matrix"
        values="0 0 0 0 0 0 0 0 0 0 0 0 0 0 0 0 0 0 127 0" result="hardAlpha" />
      <feOffset />
      <feGaussianBlur stdDeviation="2" />
      <feComposite in2="hardAlpha" operator="arithmetic" k2="-1" k3="1" />
      <feColorMatrix type="matrix" values="0 0 0 0 1 0 0 0 0 1 0 0 0 0 1 0 0 0 1 0" />
      <feBlend mode="normal" in2="shape" result="effect2_innerShadow_441_35502" />
      <feColorMatrix in="SourceAlpha" type="matrix"
        values="0 0 0 0 0 0 0 0 0 0 0 0 0 0 0 0 0 0 127 0" result="hardAlpha" />
      <feOffset dy="4" />
      <feGaussianBlur stdDeviation="4" />
      <feComposite in2="hardAlpha" operator="arithmetic" k2="-1" k3="1" />
      <feColorMatrix type="matrix" values="0 0 0 0 1 0 0 0 0 1 0 0 0 0 1 0 0 0 1 0" />
      <feBlend mode="normal" in2="effect2_innerShadow_441_35502"
        result="effect3_innerShadow_441_35502" />
    </filter>
  </defs>
  <g filter="url(#filter1_i_441_35502)"
    transform="matrix(1, 0, 0, 1, -135.6041432560107, 89.3229459721289)">
    <path fill-rule="evenodd" clip-rule="evenodd"
      d="M368.077 27.9062H375.247C377.227 27.9062 378.831 29.5112 378.831 31.491V38.6607H364.492V31.491C364.492 29.5112 366.097 27.9062 368.077 27.9062Z"
      fill="#FFDB59" />
  </g>
  <path d="M 236.058 110.06 L 236.058 117.229" stroke="#FFDB59" stroke-width="1.5"
    stroke-linecap="round" stroke-linejoin="round"
    transform="matrix(1, 0, 0, 1, 7.105427357601002e-15, 0)" />
  <path d="M 273.673 163.832 L 273.673 174.586" stroke="#FFDB59" stroke-width="1.5"
    stroke-linecap="round" stroke-linejoin="round"
    transform="matrix(1, 0, 0, 1, 7.105427357601002e-15, 0)" />
  <g filter="url(#filter2_i_441_35502)"
    transform="matrix(1, 0, 0, 1, -135.6041432560107, 89.3229459721289)">
    <rect x="400.34" y="49.4152" width="17.9241" height="25.0938" rx="8.96207" fill="#FFDB59" />
  </g>
  <path d="M 236.056 163.832 L 257.565 163.832" stroke="#FFDB59" stroke-width="1.5"
    stroke-linecap="round" stroke-linejoin="round"
    transform="matrix(1, 0, 0, 1, 7.105427357601002e-15, 0)" />
  <path d="M 253.981 174.586 L 253.981 163.832" stroke="#FFDB59" stroke-width="1.5"
    stroke-linecap="round" stroke-linejoin="round"
    transform="matrix(1, 0, 0, 1, 7.105427357601002e-15, 0)" />
  <g filter="url(#filter3_i_441_35502)"
    transform="matrix(1, 0, 0, 1, -135.6041432560107, 89.3229459721289)">
    <path
      d="M411.093 27.9062C411.093 31.8659 407.883 35.0759 403.924 35.0759C399.964 35.0759 396.754 31.8659 396.754 27.9062C396.754 23.9465 399.964 20.7366 403.924 20.7366C407.883 20.7366 411.093 23.9465 411.093 27.9062Z"
      fill="#FFDB59" />
  </g>
  <g filter="url(#filter4_i_441_35502)"
    transform="matrix(1, 0, 0, 1, -135.6041432560107, 89.3229459721289)">
    <path fill-rule="evenodd" clip-rule="evenodd"
      d="M386.001 63.7545V42.2455C386.001 40.2657 384.396 38.6607 382.416 38.6607H360.907C358.927 38.6607 357.322 40.2657 357.322 42.2455V85.2634H386.001V63.7545ZM365.533 60.1697C365.533 59.7555 365.869 59.4197 366.283 59.4197H377.038C377.452 59.4197 377.788 59.7555 377.788 60.1697C377.788 60.5839 377.452 60.9197 377.038 60.9197H366.283C365.869 60.9197 365.533 60.5839 365.533 60.1697ZM366.283 48.6652C365.869 48.6652 365.533 49.0009 365.533 49.4152C365.533 49.8294 365.869 50.1652 366.283 50.1652H377.038C377.452 50.1652 377.788 49.8294 377.788 49.4152C377.788 49.0009 377.452 48.6652 377.038 48.6652H366.283Z"
      fill="#FFDB59" />
  </g>
  <path d="M 286.245 174.586 L 214.548 174.586" stroke="#FFDB59" stroke-width="1.5"
    stroke-linecap="round" stroke-linejoin="round"
    transform="matrix(1, 0, 0, 1, 7.105427357601002e-15, 0)" />
  <path d="M 239.946 174.586 L 239.946 163.832" stroke="#FFDB59" stroke-width="1.5"
    stroke-linecap="round" stroke-linejoin="round"
    transform="matrix(1, 0, 0, 1, 7.105427357601002e-15, 0)" />
  <g filter="url(#filter5_bii_441_35502)"
    transform="matrix(1, 0, 0, 1, -135.6041432560107, 89.3229459721289)">
    <path fill-rule="evenodd" clip-rule="evenodd"
      d="M360.686 27.9062H367.856C369.836 27.9062 371.441 29.5112 371.441 31.491V38.6607H357.102V31.491C357.102 29.5112 358.707 27.9062 360.686 27.9062Z"
      fill="white" fill-opacity="0.4" />
  </g>
  <path d="M 228.667 110.06 L 228.667 117.229" stroke="#DCD9E1" stroke-width="1.5"
    stroke-linecap="round" stroke-linejoin="round"
    transform="matrix(1, 0, 0, 1, 7.105427357601002e-15, 0)" />
  <path d="M 266.282 163.832 L 266.282 174.586" stroke="#DCD9E1" stroke-width="1.5"
    stroke-linecap="round" stroke-linejoin="round"
    transform="matrix(1, 0, 0, 1, 7.105427357601002e-15, 0)" />
  <g filter="url(#filter6_bii_441_35502)"
    transform="matrix(1, 0, 0, 1, -135.6041432560107, 89.3229459721289)">
    <rect x="392.949" y="49.4152" width="17.9241" height="25.0938" rx="8.96207" fill="white"
      fill-opacity="0.4" />
  </g>
  <path d="M 228.666 163.832 L 250.174 163.832" stroke="#DCD9E1" stroke-width="1.5"
    stroke-linecap="round" stroke-linejoin="round"
    transform="matrix(1, 0, 0, 1, 7.105427357601002e-15, 0)" />
  <path d="M 246.591 174.586 L 246.591 163.832" stroke="#DCD9E1" stroke-width="1.5"
    stroke-linecap="round" stroke-linejoin="round"
    transform="matrix(1, 0, 0, 1, 7.105427357601002e-15, 0)" />
  <g filter="url(#filter7_bii_441_35502)"
    transform="matrix(1, 0, 0, 1, -135.6041432560107, 89.3229459721289)">
    <path
      d="M403.703 27.9062C403.703 31.8659 400.493 35.0759 396.533 35.0759C392.573 35.0759 389.363 31.8659 389.363 27.9062C389.363 23.9465 392.573 20.7366 396.533 20.7366C400.493 20.7366 403.703 23.9465 403.703 27.9062Z"
      fill="white" fill-opacity="0.4" />
  </g>
  <g filter="url(#filter8_bii_441_35502)"
    transform="matrix(1, 0, 0, 1, -135.6041432560107, 89.3229459721289)">
    <path fill-rule="evenodd" clip-rule="evenodd"
      d="M378.61 63.7545V42.2455C378.61 40.2657 377.005 38.6607 375.025 38.6607H353.516C351.537 38.6607 349.932 40.2657 349.932 42.2455V85.2634H378.61V63.7545ZM358.143 60.1697C358.143 59.7555 358.478 59.4197 358.893 59.4197H369.647C370.061 59.4197 370.397 59.7555 370.397 60.1697C370.397 60.5839 370.061 60.9197 369.647 60.9197H358.893C358.478 60.9197 358.143 60.5839 358.143 60.1697ZM358.893 48.6652C358.478 48.6652 358.143 49.0009 358.143 49.4152C358.143 49.8294 358.478 50.1652 358.893 50.1652H369.647C370.061 50.1652 370.397 49.8294 370.397 49.4152C370.397 49.0009 370.061 48.6652 369.647 48.6652H358.893Z"
      fill="white" fill-opacity="0.4" />
  </g>
  <path d="M 278.854 174.586 L 207.158 174.586" stroke="#DCD9E1" stroke-width="1.5"
    stroke-linecap="round" stroke-linejoin="round"
    transform="matrix(1, 0, 0, 1, 7.105427357601002e-15, 0)" />
  <path d="M 232.556 174.586 L 232.556 163.832" stroke="#DCD9E1" stroke-width="1.5"
    stroke-linecap="round" stroke-linejoin="round"
    transform="matrix(1, 0, 0, 1, 7.105427357601002e-15, 0)" />
</svg>