<svg width="22" height="22" viewBox="0 0 22 22" fill="none" xmlns="http://www.w3.org/2000/svg">
<g filter="url(#filter0_i_724_2646)">
<path d="M18.2524 6.30347C17.9656 5.28041 17.3983 4.47051 16.566 3.89763C15.5156 3.17398 14.3074 2.91734 13.264 2.76167C11.8202 2.5464 10.5125 2.51625 9.26713 2.66841C8.09891 2.81146 7.2196 3.04005 6.41672 3.40889C4.84391 4.13113 3.90008 5.30075 3.61189 6.88407C3.47164 7.6526 3.37768 8.3475 3.32299 9.01014C3.19677 10.5423 3.31107 11.8984 3.67289 13.155C4.0249 14.38 4.64056 15.2558 5.55493 15.8308C5.78843 15.9773 6.08575 16.0832 6.37464 16.1856C6.51909 16.2368 6.65793 16.2873 6.77924 16.3406V18.8158C6.77924 19.1398 7.04149 19.402 7.36545 19.402C7.51831 19.402 7.66487 19.3424 7.77425 19.2359L10.0581 17.0144C10.1577 16.9008 10.1577 16.9008 10.26 16.8987C11.0405 16.8833 11.8378 16.8532 12.6301 16.8104C13.5901 16.7578 14.7022 16.6652 15.7498 16.2284C16.7083 15.828 17.4081 15.1927 17.8282 14.3407C18.2664 13.4516 18.5273 12.4881 18.6247 11.3963C18.7958 9.47644 18.6738 7.81037 18.2524 6.30347ZM14.2759 13.6101C14.0466 13.9852 13.703 14.2447 13.2991 14.4129C13.0039 14.5364 12.7023 14.5104 12.4113 14.387C9.96833 13.3534 8.05333 11.7238 6.78695 9.38248C6.5261 8.90005 6.34449 8.37484 6.13623 7.86506C6.09346 7.75988 6.09697 7.63717 6.07803 7.52288C6.09626 6.69896 6.72805 6.23546 7.36615 6.09521C7.61017 6.04122 7.82614 6.12747 8.00706 6.30067C8.50772 6.77889 8.9039 7.33285 9.20191 7.95412C9.33234 8.22689 9.27344 8.4681 9.05115 8.67075C9.00557 8.71283 8.95719 8.75209 8.90741 8.78926C8.40043 9.17071 8.3261 9.45891 8.59607 10.0332C9.05606 11.01 9.81968 11.6656 10.8077 12.0723C11.0678 12.1796 11.3132 12.1263 11.5124 11.9152C11.539 11.8872 11.5692 11.8598 11.5888 11.8276C11.9787 11.1776 12.5432 11.2421 13.0649 11.613C13.4078 11.8563 13.7401 12.113 14.0795 12.3612C14.5942 12.7406 14.59 13.0968 14.2759 13.6101ZM11.3448 6.88057C11.2137 6.88057 11.0819 6.89109 10.9528 6.91282C10.7341 6.94999 10.5279 6.80203 10.4914 6.58326C10.455 6.36518 10.6022 6.15832 10.821 6.12186C10.9928 6.09381 11.1695 6.07909 11.3448 6.07909C13.0803 6.07909 14.4925 7.49132 14.4925 9.22681C14.4925 9.40281 14.4778 9.57952 14.449 9.75132C14.4161 9.94695 14.2464 10.0858 14.0543 10.0858C14.0325 10.0858 14.0101 10.0844 13.9877 10.0802C13.7696 10.043 13.6223 9.83686 13.6588 9.61879C13.6805 9.49117 13.691 9.35934 13.691 9.22751C13.691 7.93308 12.6385 6.88057 11.3448 6.88057ZM13.0901 9.48486C13.0901 9.70574 12.9106 9.88525 12.6897 9.88525C12.4688 9.88525 12.2893 9.70574 12.2893 9.48486C12.2893 8.82221 11.7501 8.28298 11.0875 8.28298C10.8666 8.28298 10.6871 8.10348 10.6871 7.88259C10.6871 7.66171 10.8666 7.48221 11.0875 7.48221C12.1912 7.4815 13.0901 8.38045 13.0901 9.48486ZM15.787 9.9736C15.7449 10.1601 15.5801 10.2856 15.3964 10.2856C15.3669 10.2856 15.3368 10.2821 15.3073 10.2758C15.0914 10.2267 14.956 10.0122 15.0051 9.79689C15.0633 9.54095 15.0928 9.2766 15.0928 9.01154C15.0928 7.06358 13.508 5.47815 11.5594 5.47815C11.2936 5.47815 11.03 5.5076 10.774 5.5658C10.5595 5.61559 10.3435 5.47955 10.2951 5.26358C10.246 5.04761 10.3813 4.83304 10.5973 4.78466C10.9115 4.71243 11.2354 4.67667 11.5608 4.67667C13.9505 4.67667 15.8949 6.62112 15.8949 9.01084C15.8949 9.3362 15.8585 9.66016 15.787 9.9736Z" fill="#9179EE"/>
</g>
<defs>
<filter id="filter0_i_724_2646" x="0.46875" y="0.469421" width="21.0371" height="25.0363" filterUnits="userSpaceOnUse" color-interpolation-filters="sRGB">
<feFlood flood-opacity="0" result="BackgroundImageFix"/>
<feBlend mode="normal" in="SourceGraphic" in2="BackgroundImageFix" result="shape"/>
<feColorMatrix in="SourceAlpha" type="matrix" values="0 0 0 0 0 0 0 0 0 0 0 0 0 0 0 0 0 0 127 0" result="hardAlpha"/>
<feOffset dy="4"/>
<feGaussianBlur stdDeviation="7.5"/>
<feComposite in2="hardAlpha" operator="arithmetic" k2="-1" k3="1"/>
<feColorMatrix type="matrix" values="0 0 0 0 0 0 0 0 0 0 0 0 0 0 0 0 0 0 0.2 0"/>
<feBlend mode="normal" in2="shape" result="effect1_innerShadow_724_2646"/>
</filter>
</defs>
</svg>
