<svg width="24" height="24" viewBox="0 0 24 24" fill="none" xmlns="http://www.w3.org/2000/svg">
  <path
    d="M11 5V8.84M8 5H14H8ZM17 11H14.62C14.4336 11.0013 14.2506 10.9505 14.0916 10.8533C13.9326 10.7561 13.8039 10.6164 13.72 10.45L13.28 9.55C13.1961 9.38356 13.0674 9.24388 12.9084 9.14669C12.7494 9.04951 12.5664 8.9987 12.38 9H9.62C9.43364 8.9987 9.25062 9.04951 9.09159 9.14669C8.93257 9.24388 8.80386 9.38356 8.72 9.55L8.28 10.45C8.19614 10.6164 8.06743 10.7561 7.90841 10.8533C7.74938 10.9505 7.56636 11.0013 7.38 11H3V15H16C16.2652 15 16.5196 15.1054 16.7071 15.2929C16.8946 15.4804 17 15.7348 17 16V18C17 18.2652 17.1054 18.5196 17.2929 18.7071C17.4804 18.8946 17.7348 19 18 19H20C20.2652 19 20.5196 18.8946 20.7071 18.7071C20.8946 18.5196 21 18.2652 21 18V15C21 13.9391 20.5786 12.9217 19.8284 12.1716C19.0783 11.4214 18.0609 11 17 11V11ZM3 9V17V9Z"
    stroke="#423B4E" stroke-width="2" stroke-linecap="round" stroke-linejoin="round" />
</svg>
  