<svg width="24" height="24" viewBox="0 0 24 24" fill="none" xmlns="http://www.w3.org/2000/svg">
  <path d="M15.5195 11.76L19.1695 9.76001L20.9995 11.59L15.9595 16.63" stroke="#423B4E" stroke-width="2" stroke-linecap="round" stroke-linejoin="round"/>
  <path d="M6.34997 12.9401C5.64701 12.8245 4.98768 12.5233 4.44011 12.0676C3.89255 11.6118 3.47663 11.0182 3.23534 10.3479C2.99404 9.67759 2.93614 8.95503 3.0676 8.25487C3.19907 7.55472 3.51514 6.90237 3.98314 6.36527C4.45114 5.82817 5.05409 5.4258 5.72967 5.19975C6.40524 4.97371 7.12893 4.93218 7.82593 5.07947C8.52293 5.22676 9.16794 5.55753 9.69431 6.03757C10.2207 6.51762 10.6093 7.12953 10.82 7.81005" stroke="#423B4E" stroke-width="2" stroke-linecap="round" stroke-linejoin="round"/>
  <path d="M7.1 19H14.9C15.0393 19.0006 15.1771 18.972 15.3047 18.9163C15.4323 18.8605 15.5468 18.7787 15.6409 18.676C15.7351 18.5734 15.8067 18.4523 15.8514 18.3204C15.896 18.1885 15.9125 18.0487 15.9 17.91L15.08 8.91001C15.0575 8.66069 14.9423 8.42888 14.7571 8.26039C14.572 8.09191 14.3303 7.99899 14.08 8.00001H7.91C7.65967 7.99899 7.41806 8.09191 7.23291 8.26039C7.04776 8.42888 6.93253 8.66069 6.91 8.91001L6.09 17.91C6.07738 18.0495 6.09422 18.1902 6.13943 18.3228C6.18463 18.4554 6.2572 18.577 6.35243 18.6798C6.44765 18.7826 6.56341 18.8642 6.69219 18.9193C6.82098 18.9745 6.95992 19.002 7.1 19Z" stroke="#423B4E" stroke-width="2" stroke-linecap="round" stroke-linejoin="round"/>
  </svg>
  