<svg width="20" height="20" viewBox="0 0 20 20" fill="none" xmlns="http://www.w3.org/2000/svg">
<g filter="url(#filter0_i_724_2642)">
<path d="M10.0574 2.48462C5.87521 2.48462 2.48438 5.87545 2.48438 10.0577C2.48438 11.4784 2.88344 12.8029 3.56413 13.9391L2.55217 17.6307L6.32267 16.6409C7.42538 17.2679 8.69837 17.6307 10.0574 17.6307C14.2396 17.6307 17.6305 14.2399 17.6305 10.0577C17.6305 5.87545 14.2396 2.48462 10.0574 2.48462ZM7.46528 6.52506C7.58834 6.52506 7.71479 6.52431 7.82397 6.52999C7.95902 6.53314 8.10601 6.54303 8.24675 6.85416C8.41398 7.22398 8.77813 8.15173 8.82483 8.24576C8.87153 8.33979 8.90463 8.45057 8.83962 8.57363C8.77778 8.69984 8.74561 8.77624 8.65473 8.88794C8.5607 8.99649 8.45767 9.1313 8.37247 9.21334C8.27844 9.30737 8.18134 9.41048 8.28989 9.59791C8.39843 9.78534 8.77541 10.3998 9.33266 10.8958C10.0489 11.5358 10.6533 11.7324 10.8414 11.8264C11.0294 11.9205 11.1383 11.9058 11.2469 11.7796C11.3586 11.6565 11.716 11.2343 11.8422 11.0462C11.9653 10.8581 12.0909 10.8907 12.2613 10.9525C12.4342 11.0144 13.3564 11.4686 13.5444 11.5627C13.7325 11.6567 13.8558 11.7032 13.9031 11.7796C13.9517 11.8585 13.9518 12.234 13.7959 12.672C13.64 13.1093 12.8745 13.5323 12.5312 13.5619C12.1848 13.5941 11.8614 13.7177 10.2793 13.0948C8.37088 12.3432 7.16735 10.3885 7.07332 10.2623C6.97929 10.1392 6.30911 9.24603 6.30911 8.32464C6.30911 7.4001 6.79385 6.94731 6.96362 6.75925C7.13654 6.57119 7.33906 6.52506 7.46528 6.52506Z" fill="url(#paint0_linear_724_2642)"/>
</g>
<defs>
<filter id="filter0_i_724_2642" x="0.591797" y="0.59137" width="18.9336" height="22.9326" filterUnits="userSpaceOnUse" color-interpolation-filters="sRGB">
<feFlood flood-opacity="0" result="BackgroundImageFix"/>
<feBlend mode="normal" in="SourceGraphic" in2="BackgroundImageFix" result="shape"/>
<feColorMatrix in="SourceAlpha" type="matrix" values="0 0 0 0 0 0 0 0 0 0 0 0 0 0 0 0 0 0 127 0" result="hardAlpha"/>
<feOffset dy="4"/>
<feGaussianBlur stdDeviation="7.5"/>
<feComposite in2="hardAlpha" operator="arithmetic" k2="-1" k3="1"/>
<feColorMatrix type="matrix" values="0 0 0 0 0 0 0 0 0 0 0 0 0 0 0 0 0 0 0.2 0"/>
<feBlend mode="normal" in2="shape" result="effect1_innerShadow_724_2642"/>
</filter>
<linearGradient id="paint0_linear_724_2642" x1="16.6838" y1="4.37788" x2="2.48437" y2="17.6307" gradientUnits="userSpaceOnUse">
<stop stop-color="#5BD066"/>
<stop offset="1" stop-color="#27B43E"/>
</linearGradient>
</defs>
</svg>
